<?xml version="1.0" encoding="utf-8"?>
<!-- Generator: Adobe Illustrator 28.2.0, SVG Export Plug-In . SVG Version: 6.00 Build 0)  -->
<svg version="1.1" id="Objects" xmlns="http://www.w3.org/2000/svg" xmlns:xlink="http://www.w3.org/1999/xlink" x="0px" y="0px"
	 viewBox="0 0 2200 2200" style="enable-background:new 0 0 2200 2200;" xml:space="preserve">
<style type="text/css">
	.st0{fill:#FA7103;}
</style>
<path class="st0" d="M1959.7,1142.3c0,122.6-27.2,238.8-75.9,342.9c-5.9,12.7-12.2,25.2-18.8,37.5
	c-93.8,176-250.7,313.3-440.5,381.8c0,0-0.1,0-0.1,0c-30.9,11.2-62.7,20.5-95.3,27.8c-57.7,13.1-117.8,20-179.4,20
	c-260.9,0-492.9-123.3-641-314.9c-20.1-26-38.7-53.2-55.6-81.6c-72-121-113.4-262.4-113.4-413.5c0-35.4,2.3-70.2,6.7-104.4
	c3.5-27.2,8.3-54,14.5-80.3v0c17.3-74.1,44.7-144.2,80.8-208.9c7.4-13.2,15.1-26.3,23.2-39c47.6-75.1,107.2-141.9,176.1-197.6
	c11-9,22.3-17.6,33.8-25.9c119.5-86.6,263.6-141.4,419.8-151.9c18.2-1.2,36.6-1.9,55.1-1.9c14.8,0,29.6,0.4,44.2,1.2
	c212.2,11.4,402.7,104.5,540.6,248.4l0,0c65.8,68.6,119.6,148.8,158.1,237.2c0,0,0.1,0,0.1,0.1
	C1935.8,918.2,1959.7,1027.5,1959.7,1142.3L1959.7,1142.3z"/>
<path d="M1882.5,1226.7c-0.2,1.2-0.4,2.4-0.6,3.6c0.2-1.2,0.4-2.3,0.6-3.4C1882.4,1226.7,1882.5,1226.7,1882.5,1226.7L1882.5,1226.7
	z"/>
<path d="M1883.1,1222.3c-0.2,1.4-0.4,2.9-0.7,4.4l0,0L1883.1,1222.3z"/>
<path d="M1879.7,1241.7c-0.1,0.7-0.2,1.4-0.4,2.2c0.2-1.4,0.5-2.8,0.8-4.2c0.2-1.4,0.5-2.9,0.8-4.3
	C1880.5,1237.4,1880.1,1239.5,1879.7,1241.7z"/>
<path d="M1615.6,525.8c0.7,0.7,1.4,1.3,2.1,2C1615.7,526.7,1615.2,526.1,1615.6,525.8z M1579.7,493.8c5.3,4.4,10.6,9,15.8,13.5
	c-2.5-1.2-5-2.4-7.3-3.5c-3.9-1.7-7.4-3.3-10.2-4.5C1573.4,495.2,1576.3,494.4,1579.7,493.8L1579.7,493.8z M1502.4,454.1
	c0.7-0.1,2.3,0.1,4.9,0.5c2.5,0.4,5.8,1.2,9.7,2.1c1.9,0.5,4,1,6.2,1.5c1.1,0.3,2.2,0.6,3.4,0.9c1.1,0.3,2.3,0.7,3.5,1
	c3.5,1,7.2,2.1,11,3.3c4.8,3.6,9.6,7.2,14.4,10.8c-2.2-0.8-4.4-1.7-6.6-2.5c-1.8-0.7-3.7-1.4-5.5-2.1c-1.8-0.7-3.7-1.3-5.5-1.9
	c-3.6-1.2-7.1-2.4-10.2-3.5c-0.8-0.3-1.6-0.6-2.3-0.8c-0.8-0.2-1.5-0.5-2.2-0.7c-1.4-0.5-2.8-1-4-1.4c-2.5-0.9-4.5-1.8-5.9-2.5
	c-2.2-0.8-4.1-1.5-5.6-2.1c-1.5-0.5-2.7-1-3.6-1.4C1502.2,454.6,1501.7,454.2,1502.4,454.1L1502.4,454.1z M1745.7,1347.2
	c1.5,1.1,6.6,7.4,13.8,16.6c1.8,2.3,3.7,4.8,5.7,7.4c2,2.7,4,5.5,6.2,8.4c2.1,2.9,4.3,5.9,6.6,9c1.1,1.6,2.2,3.1,3.4,4.7
	c1.1,1.6,2.2,3.2,3.3,4.8c1.5,2.1,2.9,4.2,4.4,6.4c-0.9,2-1.7,3.9-2.6,5.9c-0.4-0.7-0.9-1.3-1.3-2c-3.2-4.8-6.4-9.7-9.6-14.3
	c-3.2-4.6-6.2-9-9-13.1c-5.5-8.2-10.1-14.9-12.3-19.1c-3.9-5.8-6.3-9.8-7.7-12.1C1745.2,1347.4,1745,1346.7,1745.7,1347.2
	L1745.7,1347.2z M622.6,655c-5.4-0.5-10.8-0.9-16.2-1.4c0.2-0.3,0.5-0.6,0.7-0.9l1.5,0.2L622.6,655z M1015,316.8
	c1.3-0.5,2.7-1.1,4.1-1.7l7.4-0.6c4.7-0.3,9.4-0.6,14.1-0.8c-0.9,0.4-1.7,0.7-2.6,1.1c-2.9,1.2-5.8,2.4-8.8,3.6
	c-5.9,2.4-11.8,4.8-17.2,7.1c-5.3,2.3-10.2,4.5-14.1,6.2c-0.5-1.2-1.7-3.7-2.2-5c-0.3-0.6,3.5-2.6,9.3-5.4
	C1007.8,319.8,1011.3,318.3,1015,316.8L1015,316.8z M994.8,317.4c0.6-0.1,1.3-0.1,1.9-0.2c-6.7,3-13.4,5.9-20.1,8.8
	C983.1,323,989.1,320.1,994.8,317.4z M917.7,388.2l8.2-4.5c2.8-1.5,5.5-3,8.3-4.4c5.6-2.8,11.3-5.6,16.9-8.3l8.5-4.1l8.6-3.9
	l17.2-7.8c2.8-1.3,5.8-2.5,8.6-3.8l8.6-3.8c5.8-2.5,11.4-5.2,17.2-7.8c-1.1-2.5-1.6-3.8,13.5-11.4c-3.9,1.6-8,3.3-12.3,5.1
	c-2.2,0.9-4.4,1.8-6.6,2.8c-2.2,1-4.5,2-6.7,3c-4.5,2.1-9.2,4.2-14,6.3c-2.4,1.1-4.7,2.1-7.1,3.2c-2.4,1.1-4.7,2.3-7.1,3.4
	c-4.7,2.3-9.5,4.5-14.2,6.8c-2.3,1.1-4.7,2.2-7,3.3c-2.3,1.1-4.5,2.2-6.8,3.3c-4.5,2.2-8.8,4.3-13,6.4c-2.1,1-4.2,2-6.2,2.9
	c-2,0.9-4,1.8-5.9,2.8l-1.9-3.6c1.8-1.1,3.7-2.1,5.7-3.2c2-1,4-2.1,6.1-3.2c4.2-2.2,8.5-4.4,13-6.6c2.2-1.1,4.5-2.3,6.8-3.3
	c2.3-1.1,4.7-2.1,7.1-3.2c4.7-2.1,9.5-4.3,14.3-6.5c2.4-1.1,4.8-2.2,7.2-3.2c2.4-1,4.8-2,7.2-3.1c4.8-2.1,9.5-4.1,14.1-6.1
	c2.3-1,4.6-2,6.8-3c2.2-1,4.4-1.9,6.6-2.8c4.3-1.8,8.4-3.6,12.3-5.4c-0.5-1.3-1.5-3.8-2.1-5c-0.3-0.6,3.5-2.5,9.4-5.1
	c0.6-0.3,1.2-0.5,1.9-0.8c0.2,0,0.5,0,0.7,0c10.1-0.5,20.3-0.8,30.4-0.9c20.3-0.2,40.6,0.3,60.9,1.8l7.6,0.5l7.6,0.7l7.6,0.7
	l3.8,0.3l3.8,0.4l15.1,1.7l15.1,2.1c20.1,3,40,6.6,59.8,11.1c19.8,4.5,39.3,9.8,58.7,15.8l7.2,2.3l3.6,1.1l3.6,1.2l14.4,4.9
	l14.3,5.2c2.4,0.9,4.7,1.8,7.1,2.7l7.1,2.8c18.8,7.5,37.3,15.8,55.5,24.7c16.4,8.1,32.5,16.8,48.2,26c-10.8-2-21.6-3.7-32.5-5.1
	c-20.5-2.6-41.1-4-61.7-4.6l-7.7-0.2c-2.6,0-5.2-0.1-7.7-0.1c-5.2,0-10.3,0.1-15.4,0.1c-10.3,0.3-20.6,0.6-30.8,1.4
	c-20.4,1.3-40.8,3.3-60.8,6.1c-20.1,2.8-39.9,6-59.4,9.9l-7.3,1.4c-2.4,0.5-4.8,1-7.3,1.5c-4.8,1-9.7,2.1-14.5,3.1
	c-9.6,2.2-19.2,4.3-28.7,6.7c-19,4.6-37.7,9.6-56,14.8c-15.3,4.3-31.1,8.7-47.1,13.2c-16,4.5-32.1,9.1-48.4,13.6
	c-32.5,9-65.6,17.6-98.5,24c-16.5,3.2-32.9,6-49.2,8c-16.3,2-32.5,3.3-48.4,3.9c-18.5,0.7-36.6,0.3-54.1-1.2
	c0.9-0.8,1.7-1.5,2.6-2.2c16.5-13.8,32.9-27.2,49.3-39.6c19.7-15.4,48-33,74.8-48.9c3.4-2,6.7-4,10-5.9c1.6-1,3.3-2,4.9-2.9
	c1.6-1,3.2-1.9,4.8-2.8c6.4-3.7,12.5-7.3,18.2-10.8c1.4-0.9,2.8-1.8,4.2-2.6c1.4-0.8,2.7-1.6,4-2.4c2.6-1.6,5.1-3.2,7.5-4.7
	c4.7-3.1,8.7-6,12-8.7c-7.4,3.9-14.7,7.9-22.1,11.8l-2.8,1.5l-2.7,1.5l-5.5,3.1l-10.9,6.2c5.2-3.5,10.5-7,15.8-10.3
	c2.6-1.7,5.4-3.2,8.1-4.8L917.7,388.2z M905.4,332.4C905.4,332.4,905.4,332.4,905.4,332.4c-8.5,4.5-17,9-25.5,13.5
	c-2.1,1.1-4.2,2.3-6.3,3.5l-6.3,3.5l-12.6,7.1c-33.4,19.2-66,40.1-97.5,62.8l-11.8,8.5l-11.6,8.8l-11.6,8.8l-11.4,9.1l-11.4,9.2
	c-3.7,3.1-7.4,6.3-11.1,9.5l-11.1,9.5c-3.7,3.3-7.3,6.6-11,9.9l-2.4,2.2c-0.9-0.5-1.7-1-2.6-1.5c-4.1-2.5-8.3-5.5-12.3-8.5
	c-4-3.1-8-6.3-11.7-9.5c-3.7-3.2-7.3-6.4-10.7-9.4c-2.3-2.1-4.5-4-6.7-5.9C704.7,400.9,802.6,356,905.4,332.4L905.4,332.4z
	 M617.7,465c4.8,5.1,9.8,10,15,14.6c-5.8-4-11.2-8.6-16.2-13.6C616.9,465.6,617.3,465.3,617.7,465L617.7,465z M570,503.3
	c1.1-0.9,2.2-1.9,3.2-2.8c4.6,5,9.3,10,14.3,14.8c9.9,9.5,20.5,18.4,32.5,26.6c-12,12.8-23.7,26-34.9,39.5
	c-3.2,3.8-6.2,7.6-9.3,11.4c-3,3.9-6.1,7.7-9.1,11.6c-6,7.8-11.9,15.7-17.7,23.6c-4.5,6.3-8.9,12.6-13.2,18.9
	c-27.4-2.5-55-4.6-82.9-4c0,1.4,0,2.4-2.4,3.2c-1.8,0.6-4.8,1.2-10.1,1.8C477.4,594.6,521,545.9,570,503.3L570,503.3z M440,648.4
	c17.9-0.4,39-0.2,60,0.7c11.1,0.5,22.2,1.2,32.7,2c-0.2,0.3-0.4,0.6-0.6,0.9c-0.9,1.3-1.8,2.6-2.6,3.9c-9.7-0.8-19.7-1.6-29.7-2.2
	c-22-1.5-44.2-2.2-62.6-1.2C438.2,651.1,439.1,649.8,440,648.4L440,648.4z M434.1,657.2c0,0.4,0,0.7,0,1c0,0.2-0.4,0.4-1,0.5
	C433.4,658.1,433.7,657.6,434.1,657.2z M432.5,659.5c0.5,0,1.1,0,1.7,0c14-0.4,28-0.2,37.4,0c0,1.4-0.1,4.1-0.1,5.4
	c0,1.4-18.5,0.8-37,1.4c0,1.4-4.5,2.8-6.8,4.1c-2.2,1.3-2.2,2.3,7,2.7c18.3-0.5,36.7-0.2,55.1,0.6c-28.5-0.7-51.4,0.9-68.5,3.5
	C424.8,671.2,428.6,665.4,432.5,659.5L432.5,659.5z M414.5,687.8c0.4,0,0.9-0.1,1.3-0.2C415.3,687.8,414.9,687.8,414.5,687.8
	C414.5,687.9,414.5,687.9,414.5,687.8L414.5,687.8z M359.1,798c13.8-34,30.1-67,48.5-98.8c10.6-0.9,21.5-1.3,32.5-1.5
	c19.3-0.2,38.9,0.4,58.6,1.5c1.1,0.1,2.2,0.1,3.2,0.2c-15.4,25.8-29.7,52.3-42.9,79.3c-5.5,11.3-10.8,22.8-16,34.3
	c-6.9,1.1-12.8,2.7-17.6,4.4c5.5-0.9,11-1.7,16.7-2.2c-0.3,0.6-0.5,1.2-0.8,1.8c-0.5,0-0.9,0.1-1.4,0.2c-14.4,1.8-28.2,4.5-41.8,8
	c-13.6,3.5-26.9,7.8-39.8,13c-5.7,2.3-11.3,4.7-16.8,7.3C347,829.6,352.8,813.7,359.1,798L359.1,798z M339.3,852.9
	c8.1-4.1,16.6-8,25.4-11.5c10.6-4.3,21.5-8,32-10.9c10.5-2.9,20.8-5,30-6.2l0.7,4c-9,1.9-19,4.2-29.3,7.1
	c-10.4,2.9-21.1,6.3-31.7,10.3c-9.9,3.7-19.6,8-28.7,12.5C338.2,856.4,338.7,854.6,339.3,852.9L339.3,852.9z M334.7,867.7
	c3.6-1.9,7-3.6,9.9-5c0.6,1.2,1.8,3.7,2.4,4.9c0.1,0.3-0.7,1-2.3,2c-1.6,1-4,2.3-6.8,4c-1.8,1-3.7,2.1-5.8,3.2
	C332.9,873.8,333.8,870.7,334.7,867.7L334.7,867.7z M329.4,886.2c4.5-2.6,9-5.1,13.5-7.5c7.5-3.9,15.2-7.5,23.1-10.9
	c-14.8,6.7-27.1,13.8-37.2,20.8C329,887.8,329.2,887,329.4,886.2z M407.7,1480.7l-6.5-11.3c-0.1-0.2-0.2-0.3-0.3-0.5
	c-1.1-7.5-1.8-13.7-1.9-17.5c-0.4-3.2-0.5-5.8-0.7-8c-0.1-2.2-0.2-3.8-0.2-5.1c0-2.5,0.1-3.2,0.5-2.4c0.4,0.8,0.9,2.9,1.6,6.3
	c0.3,1.7,0.7,3.6,1.1,5.8c0.5,2.2,1,4.6,1.5,7.2c1.1,5.2,2.2,11.2,3.5,17.6c0.5,2.7,1,5.5,1.6,8.3L407.7,1480.7L407.7,1480.7z
	 M408.8,900.3l-2.4,6.9l-2.3,6.9l-4.5,13.9l-4.3,14l-2.1,7l-2,7l-4,14.1l-3.7,14.1l-1.9,7.1l-1.7,7.1l-3.4,14.2l-3.1,14.3l-1.5,7.1
	l-1.4,7.2l-2.8,14.3L365,1070l-1.2,7.2l-1.1,7.2l-2.2,14.5l-1.9,14.5l-0.9,7.2l-0.8,7.3l-1.6,14.6l-1.2,14.6l-0.6,7.3l-0.5,7.2
	c-0.6,9.6-1.3,19.1-1.8,28.8l-0.7,14.4c-0.3,4.8-0.3,9.7-0.5,14.5c-1.3,38.7-0.6,77.6,2,116.2c0.6,7.6,1.3,15.3,1.9,22.9
	c-5.4-13.9-10.3-28-14.9-42.2c-21.1-66.2-33.2-135.3-35.9-204.9c-0.5-17.4-0.9-34.8-0.4-52.2c0.5-17.4,1.5-34.8,3.1-52.1
	c3-32.3,8-64.4,15.1-96c5.5-3.8,11.1-7.5,16.9-10.9c14.7-8.8,30.4-16.3,46.4-22.5c10.8-4.2,21.9-7.7,32.9-10.4l-3.5,9.3L408.8,900.3
	L408.8,900.3z M1087.7,1866.5c-17.3,0.1-34.6-0.3-51.9-1.2c-34.6-1.8-69-6.1-103-12.6c-34-6.5-67.6-15.2-100.5-26.2
	c-32.8-11.1-64.9-24.3-96-39.6c-31.2-15.2-61.2-32.8-90-52.1l-5.4-3.6c-1.8-1.2-3.6-2.4-5.4-3.7l-10.6-7.6l-5.3-3.8l-5.2-3.9
	l-10.4-7.8c-3.5-2.6-6.8-5.4-10.2-8.1l-5.1-4.1c-1.7-1.3-3.4-2.7-5-4.1l-9.9-8.4l-5-4.2l-4.8-4.3l-9.7-8.7c-3.2-2.9-6.3-5.9-9.5-8.9
	l-4.7-4.5c-1.6-1.5-3.2-3-4.7-4.5l-9.2-9.2l-4.6-4.6l-4.5-4.7l-8.9-9.5c-3-3.2-5.8-6.5-8.7-9.7l-4.3-4.8c-1.4-1.6-2.9-3.2-4.3-4.9
	c-11.3-13.2-50.2-64.5-58.5-76.9c0-0.3-0.1-0.6-0.1-1c-0.7-6.4-1.7-13.7-2.8-22c-2-16.7,5.4-1,8-1.6c-9.6-49-16.8-99.3-20.4-150.3
	c-0.2-3.2-0.6-6.4-0.7-9.6c-0.2-3.2-0.3-6.4-0.5-9.6c-0.3-6.4-0.6-12.8-0.9-19.2c-0.2-6.4-0.3-12.8-0.4-19.2l-0.2-9.6
	c-0.1-3.2,0-6.4,0-9.7c0-6.4,0.1-12.9,0.1-19.3c0.1-6.4,0.4-12.9,0.6-19.4l0.3-9.7l0.5-9.7l0.5-9.7c0.2-3.2,0.3-6.5,0.5-9.8
	l1.3-19.6c0.5-6.5,1-12.8,1.5-19.2c0.2-3.2,0.6-6.4,0.9-9.6l1-9.6c0.3-3.2,0.7-6.4,1.1-9.6l1.2-9.6c3.3-25.4,7.6-50.8,12.8-75.8
	c10.4-50,24.1-99,40.8-145.9c1.7-4.9,3.5-9.8,5.4-14.7c0.5-1.2,0.9-2.5,1.4-3.7c2,0.4,4.1,0.8,6.1,1.3l5.6,1.5
	c1.9,0.5,3.7,1.2,5.5,1.7c7.4,2.5,14.6,5.5,21.6,9.1c14,7.3,27.2,16.8,39.4,28c12.2,11.3,23.5,24.2,33.8,38.2
	c10.4,14,19.7,29.1,28.4,44.9c8.6,15.8,16.5,32.2,23.6,49.1c1.8,4.2,3.5,8.6,5.3,12.9c1.8,4.3,3.6,8.6,5.2,13l5.1,13.1l4.9,13.2
	l2.4,6.6l2.4,6.7c1.6,4.4,3.2,8.9,4.7,13.4c3,9,6.1,17.9,9.1,26.9c3,9,5.8,18.1,8.8,27.2c2.8,9.1,5.7,18.2,8.5,27.4
	c11.2,36.6,21.9,73.8,33.2,111c5.6,18.7,11.4,37.3,17.4,56c6,18.7,12.3,37.4,18.9,56c13.3,37.2,28.2,74.3,45.7,110.5
	c8.8,18.1,18,36,28.3,53.5l3.8,6.6c1.3,2.2,2.6,4.3,4,6.5c2.7,4.3,5.3,8.7,8,12.9c5.6,8.5,11,17,17,25.3c3,4.1,5.8,8.4,8.9,12.4
	c3,4,6,8.2,9.1,12.1c6.2,8,12.5,15.8,18.9,23.6c12.9,15.5,26.4,30.4,40.4,44.8c6.9,7.3,14.2,14.2,21.4,21.3l11,10.3l2.8,2.6l2.8,2.5
	l5.6,5c7.4,6.8,15.2,13.1,22.9,19.6l11.8,9.4c2,1.6,3.9,3.2,5.9,4.7l6,4.5c15.9,12.2,32.6,23.6,49.4,34.5c6.5,4,13,8.2,19.6,12.1
	C1107.7,1866.1,1097.7,1866.4,1087.7,1866.5L1087.7,1866.5z M1177.4,1860.3c-2.6-1.4-4.9-2.6-7-3.9c-3.1-1.9-5.6-3.5-7.3-4.9
	c-5.6-3.4-9.2-5.7-11.3-7.2c-2-1.5-2.5-2.1-1.6-1.9c1.6,0.4,8.5,3.7,18.1,8.5c4.8,2.5,10.4,5.1,16.5,7.9c0.3,0.1,0.5,0.2,0.8,0.4
	C1182.8,1859.6,1180.1,1860,1177.4,1860.3z M1698.6,1557.9l-2,2.7l-2.1,2.7l-4.2,5.3c-44.8,57.1-97.5,107.9-156.4,150.6
	c-56.9,41.3-119.6,74.8-185.7,99.3l-6.6,2.4c-40.2,14.5-81.7,25.6-123.9,33.2c-13.3-7.6,3-4.6,4-7.1c-5.6-2.6-11.3-5.2-17-7.7
	c-5.6-2.8-11.2-5.6-16.8-8.4c-11.1-5.8-22.2-11.8-33.1-18.3c-21.8-12.9-43.1-27.2-63.6-42.7c-41.1-31-79.4-66.9-113.8-106.2
	l-6.4-7.4c-2.1-2.5-4.3-4.9-6.3-7.5c-4.1-5.1-8.3-10.1-12.2-15.2c-4.1-5.1-7.9-10.3-11.8-15.5c-3.8-5.2-7.5-10.5-11.2-15.7
	c-14.7-21.2-28.1-43.4-40.3-66.2c-24.5-45.7-44.5-93.8-62.4-142c-14.8-40.3-28.2-83.8-41.5-128.8c-13.3-45-26.6-91.6-41.7-137.9
	c-7.6-23.2-15.6-46.3-24.3-69.1c-4.3-11.4-8.9-22.7-13.6-33.9c-4.8-11.3-9.9-22.5-15.3-33.5c-10.9-22-23.1-43.1-37-62.9
	c-13.9-19.8-29.7-38.1-47.3-54c-2.6-2.5-5.5-4.8-8.4-7.4c-1.4-1.3-3-2.5-4.6-3.8c-1.6-1.3-3.1-2.6-4.7-3.9
	c-3.3-2.5-6.6-5.2-10.2-7.7c-3.5-2.6-7.2-5-11-7.5c-1.9-1.2-3.9-2.4-5.8-3.6c-1-0.6-2-1.2-2.9-1.8c-1-0.6-2-1.1-3-1.7
	c-2-1.1-4.1-2.3-6.1-3.4c-2.1-1-4.2-2.1-6.3-3.1c-2.1-1.1-4.3-2-6.4-2.9c-2.2-1-4.3-1.9-6.5-2.8c-2.2-0.8-4.4-1.7-6.6-2.5
	c-2.2-0.8-4.5-1.5-6.7-2.2c-1.1-0.4-2.2-0.7-3.3-1.1c-1.1-0.3-2.2-0.6-3.4-0.9c-0.6-0.2-1.2-0.3-1.8-0.5
	c6.8-14.6,14.1-29.2,21.8-43.8c12.3-23,25.7-45.9,40.2-68.2l2.8,0.3l7.3,0.8l7.3,1l14.6,2l14.6,2.3c2.4,0.4,4.9,0.7,7.3,1.2l7.3,1.3
	c4.9,0.9,9.7,1.7,14.6,2.6c9.7,2,19.4,3.8,29.1,6c19.4,4.2,38.7,9.1,58,14.2c38.6,10.5,77,22.5,115.4,35.5
	c9.6,3.3,19.2,6.5,28.8,9.9l14.4,5l14.4,5.1l7.2,2.5l7.1,2.6c4.7,1.7,9.4,3.4,14.1,5.2c9.4,3.5,18.8,7.1,28.1,10.8
	c37.4,14.8,74.5,30.9,111,48.2c73,34.6,144.1,73.7,212.3,117.2c68.2,43.5,133.7,91.2,195.3,143.3c3.8,3.3,7.7,6.5,11.5,9.8l11.4,9.9
	l5.7,5l5.6,5.1l11.2,10.1c3.7,3.4,7.4,6.8,11.1,10.3c3.7,3.4,7.4,6.8,11.1,10.3c7.3,7,14.6,13.8,21.8,21
	c28.7,28.2,56.4,57.4,82.8,87.8c42.1,48.5,81.2,99.5,116.4,152.9c-1.8,3.6-3.7,7.1-5.6,10.6c-4.4,7.9-8.6,15.9-13.3,23.7
	c-4.5,7.9-9.3,15.5-14,23.3c-4.9,7.6-9.7,15.3-14.9,22.7c-5,7.6-10.3,14.9-15.6,22.3L1698.6,1557.9L1698.6,1557.9z M1802.4,1435.7
	C1802.4,1435.7,1802.4,1435.6,1802.4,1435.7c1-2.3,2-4.5,3-6.7c0,0,0.1,0.1,0.1,0.1C1804.5,1431.3,1803.5,1433.5,1802.4,1435.7z
	 M1800.8,1493.3c-3.4,6-6.8,12-10.2,17.9c-1.8,3.2-3.8,6.3-5.7,9.4c-1.9,3.1-3.8,6.2-5.7,9.3c-2,3.1-3.9,6.1-5.8,9.1s-3.8,6-5.9,8.9
	c-15.8,23.6-32,45-47.3,63.3l-3.2-2.6c14.7-18.6,30.6-40.1,46.3-63.5c2-2.9,3.9-5.9,5.8-8.9c1.9-3,3.9-6,5.8-9
	c1.9-3,3.8-6.1,5.7-9.2c1.9-3.1,3.8-6.2,5.7-9.3c3.9-6.6,7.8-13.4,11.6-20.2l9.7-17.7c0.1-0.2,0.3-0.5,0.4-0.8
	c1.4-2.6,2.7-5.2,4.1-7.8l1.8-3.5c1.4-2.8,2.9-5.7,4.3-8.5c0.3-0.7,0.7-1.4,1.1-2.2l6.6-13.9c0.6-1.3,1.2-2.6,1.8-3.9
	c1.5-3.3,3.1-6.7,4.6-10c1.5-3.3,2.8-6.7,4.3-10c1.4-3.3,2.8-6.6,4.2-9.9c1.4-3.3,2.6-6.6,3.9-9.9c10.3-26.2,18.6-51.7,24.8-74.6
	c-1.3-0.4-3.9-1.1-5.2-1.5c-0.3-0.1,0.2-3,1.4-8c0.6-2.5,1.3-5.6,2.2-9c0.4-1.7,0.9-3.6,1.4-5.5c0.4-2,0.9-4,1.4-6.2
	c1-4.3,2.1-9,3.2-13.9c1.1-4.9,2.1-10.2,3.3-15.6c0.6-2.7,1.2-5.4,1.7-8.2c0.2-1.1,0.4-2.3,0.6-3.4c-1.1,6.2-2.6,12.7-4,19.6
	c-0.4,2-0.8,4-1.3,6c-0.5,2-1,4-1.4,6.1c-1,4.1-2,8.2-3,12.4c-0.2,1.1-0.5,2.1-0.8,3.2c-0.3,1.1-0.6,2.1-0.8,3.2
	c-0.6,2.1-1.1,4.2-1.7,6.3c-1.2,4.2-2.3,8.5-3.4,12.8c-1.3,4.2-2.5,8.5-3.8,12.7c-1.2,4.2-2.5,8.4-3.9,12.5
	c-2.7,8.2-5.2,16.3-8.1,23.9c-1.4,3.8-2.7,7.5-4,11.1s-2.7,7.1-4,10.4c-1.3,3.3-2.5,6.6-3.7,9.6c-1.2,3.1-2.5,5.9-3.6,8.6
	c-1.3-0.5-3.8-1.6-5-2.1c-0.3-0.1,0.6-2.9,2.3-7.7c1.7-4.8,4.2-11.7,7.3-19.9c5.8-16.5,13.4-38.6,19.8-61.1
	c-1.3-0.4,0.4-12,0.8-17.9c0.3-5.9-0.6-6.1-7.3,16c-6.4,22.3-13.7,44.2-21.9,65.9c-2.1,5.4-4.2,10.8-6.3,16.2l-6.7,16
	c-0.4,0.9-0.7,1.8-1.1,2.6c-0.1-0.1-0.1-0.2-0.2-0.3c0.2-0.5,0.4-0.9,0.6-1.4c2-5,4-10,6-14.8c0.5-1.2,1-2.4,1.5-3.6
	c0.4-1.2,0.9-2.4,1.3-3.6c0.9-2.4,1.8-4.8,2.7-7.2c3.6-9.4,6.6-18.8,9.6-27.6c1.5-4.5,2.7-8.9,4.1-13.2c1.3-4.3,2.7-8.5,3.7-12.7
	c9.3-33.4,14.6-61.8,17.8-84.6c0.7-5.7,1.4-11.1,2-16.1c0.3-2.5,0.5-4.9,0.7-7.2c0.2-2.3,0.4-4.6,0.6-6.7c0.3-4.3,0.7-8.2,0.8-11.8
	c0.1-3.6,0.2-6.8,0.3-9.7c0.3-11.5-0.5-17.3-1.5-17.4c-0.2,2.8-0.3,5.5-0.6,8c-0.3,2.5-0.6,4.8-0.8,7.1c-0.5,4.4-1.1,8.3-1.6,11.8
	c-1.2,7-2.4,12.6-3.6,18.2c-0.3,1.4-0.6,2.8-0.9,4.2c-0.3,1.4-0.7,2.8-1,4.3c-0.7,2.9-1.4,6.1-2.1,9.6c-1,5.4-2.4,11.7-3.9,19.5
	c5.6-31.2,9.1-62.4,10.6-89.4c0.2-3.6,0.5-7.2,0.6-10.6c0.1-3.5,0.2-6.8,0.3-10.1c0.1-3.3,0.2-6.5,0.2-9.5c0-3.1,0-6.1,0-8.9
	c-0.1-5.7,0-10.9-0.2-15.6c-0.2-4.7-0.4-8.8-0.6-12.4c-0.2-3.5-0.4-6.4-0.6-8.7c-0.2-2.3-0.5-3.9-0.7-4.7c-0.4-1.6-0.9,0.1-1.3,5.6
	c-1.1,10.5-1.1,35.9-5.9,80.5l-0.7,6.7l-0.9,6.7l-1.7,13.4c-0.7,4.5-1.4,8.9-2.1,13.4c-0.7,4.5-1.3,8.9-2.2,13.4l-2.5,13.3
	c-0.4,2.2-0.8,4.4-1.3,6.6l-1.4,6.6l-1.4,6.6l-0.7,3.3c-0.2,1.1-0.5,2.2-0.8,3.3l-3.2,13.2c-1,4.4-2.2,8.8-3.4,13.1
	c-1.2,4.4-2.3,8.7-3.6,13.1l-3.9,13c-0.7,2.2-1.3,4.3-2,6.5l-2.1,6.4l-4.2,12.9l-4.6,12.8l-2.3,6.4l-2.5,6.3l-2.8,7.2
	c-61.7-89.1-135.7-174.5-218-250.6c-21.7-20.1-43.9-39.6-66.6-58.4c-22.7-18.8-45.8-36.9-69.3-54.3c-46.9-34.8-95.1-66.8-143.6-95.7
	c-40.4-24.2-83.4-48.7-128.3-72.3c-44.8-23.6-91.5-46.4-139.1-67.1c-23.8-10.4-47.8-20.3-71.9-29.5c-6-2.3-12.1-4.6-18.1-6.8
	c-3-1.1-6-2.2-9.1-3.3c-3-1.1-6-2.1-9-3.2c-6-2.1-11.9-4.2-17.9-6.3c-6-2.1-11.9-4.1-17.8-6.2c-47.5-16.3-94.4-30.9-139.8-42
	c-27.5-6.8-64-16.8-99.1-23.5c-15.5-3-30.6-5.4-44.3-7c22.2-29,46.5-56.5,71.6-82.2c9.3,2.3,18.7,4.2,28.1,5.8
	c14.1,2.3,28.2,3.7,42.3,4.6c14.1,0.9,28.1,0.9,42,0.5c13.9-0.4,27.8-1.4,41.5-2.9c13.7-1.5,27.3-3.4,40.8-5.7
	c13.4-2.3,26.8-5,39.9-7.9c52.7-11.7,103-27.2,152.5-40.3l9.3-2.4l9.3-2.4c6.2-1.6,12.5-3.2,18.7-4.7c6.2-1.5,12.5-3.1,18.7-4.5
	l18.7-4.4c25-5.7,50-10.9,75-15.2c25-4.4,50-7.9,75-10.4c25-2.5,49.9-3.8,74.6-3.6c24.8,0.2,49.3,1.9,73.6,5.2
	c24.3,3.4,48.2,8.4,71.7,15.3c45.3,13.1,88.5,33,129.3,57.5c0.7,0.7,1.3,1.4,2,2.1l10.2,10.9l10.2,11.3c26.8,30.4,51.2,62.7,73,96.8
	c21.7,34.1,40.8,69.8,57.1,106.8l0.3,0.7c18.2,41.9,32.8,85.4,43.5,129.8c5.3,22.3,9.6,44.9,12.9,67.5c3.3,22.7,5.8,45.5,7,68.4
	c0.1,1.4,0.2,2.8,0.3,4.1c0.1,1.3,0.1,2.7,0.2,3.9c0.1,2.6,0.3,5,0.4,7.3c0.3,4.6,0.6,8.8,0.7,12.5c0.3,7.4,0.6,13.1,0.9,17.3
	c0.5,8.8,1,11.7,1.6,11.7c1.2,0,2.6-11.8,3.9-11.8c0-55.6-6-111.2-17.4-164.3c-10.7-50-26.1-97.8-44.6-141.8l0.1-0.1l-3.4-7.7
	c0-0.1-0.1-0.2-0.1-0.2l-4.2-9.7l-0.2-0.1c-0.2-0.4-0.4-0.9-0.6-1.3c-0.8-1.8-1.6-3.6-2.4-5.4c-0.8-1.8-1.7-3.6-2.5-5.4
	c-1.7-3.6-3.3-7.1-5-10.6c-1.7-3.5-3.5-7-5.2-10.4c-0.9-1.7-1.7-3.5-2.6-5.2c-0.9-1.7-1.8-3.4-2.7-5.1c-1.8-3.4-3.5-6.8-5.3-10.1
	c-1.8-3.3-3.7-6.6-5.5-9.9c-0.9-1.7-1.8-3.3-2.7-4.9c-0.9-1.6-1.9-3.2-2.8-4.8c-14.8-25.7-30-49.5-45.4-71.1
	c-13.7-18.2-5.8-10,2.4-1.8c4.1,4.1,8.1,8.2,9.7,8.9c1.6,0.7,0.7-2.2-5.6-11.9c-6.9-9.2-15.6-20.7-25.7-32.9
	c-4.8-5.9-9.9-11.9-15.2-18l-10.8-12.1c-0.9-1-1.8-2-2.8-3.1l-4.4-4.7l-4.4-4.7c-1.5-1.6-2.9-3.1-4.4-4.7c-3-3.1-6.1-6.2-9-9.2
	c-0.8-0.8-1.5-1.5-2.2-2.3c-0.8-0.7-1.5-1.5-2.2-2.2c-1.5-1.5-3-2.9-4.5-4.3c-1.5-1.4-2.9-2.9-4.4-4.3c-0.7-0.7-1.4-1.4-2.2-2.1
	c-0.7-0.7-1.5-1.4-2.2-2c-5.8-5.4-11.3-10.6-16.6-15.2c-2.6-2.3-5.2-4.6-7.6-6.7c-2.4-2.1-4.8-4.1-7-6c-0.6-0.6-1.1-1.1-1.6-1.7
	c3.1,1.1,5.3,1.8,5.6,1.2c0.5-1.1,1.1-2.3,1-3.6c2.2,1.3,4.4,2.6,6.3,3.6c2.1,1.2,3.8,2,4.7,2.1s0.9-0.5-0.2-2.2
	c-0.6-0.9-1.5-2-2.7-3.4c-1.3-1.4-2.9-3.1-5-5.2c-2.1-2.1-4.6-4.5-7.4-7.2c-2.9-2.7-6.3-5.6-9.9-8.8c-1.8-1.6-3.7-3.3-5.8-4.9
	c-2-1.7-4.2-3.4-6.3-5.1c-2.2-1.8-4.4-3.6-6.8-5.4c-2.4-1.8-4.8-3.6-7.2-5.5c-19.8-15.1-44.1-31.5-69.3-46.5
	c-25.2-15-51.3-28.3-73.9-38.9c-11.3-5.3-21.7-9.8-30.6-13.7c-9-3.8-16.3-7-21.8-9.3c-4.1-1.6-7.9-3.1-11.3-4.5
	c-3.5-1.3-6.6-2.5-9.4-3.5c-5.6-2.1-10-3.8-13.2-4.9c-6.4-2.3-8.1-3.2-5.9-2.7c1.1,0.2,3.1,0.7,6.1,1.5c1.4,0.4,3.1,0.9,5,1.4
	c1.8,0.6,3.9,1.2,6.1,1.9c9,2.8,20.8,6.8,34.6,12c3.4,1.3,7,2.7,10.7,4.1c3.7,1.4,7.4,3,11.3,4.6c1.9,0.8,3.9,1.6,5.9,2.4
	c1,0.4,2,0.8,3,1.2c1,0.4,2,0.9,3,1.3c4,1.8,8.1,3.6,12.3,5.5c16.6,7.6,34.1,16.3,51.6,25.8c17.5,9.6,34.9,20,51.5,30.8
	c16.6,10.8,32.2,21.9,46.3,32.5c-18.2-15,1.1-1.5,24.1,17.2c5.8,4.6,11.6,9.7,17.4,14.5c2.9,2.4,5.6,4.9,8.3,7.2
	c2.7,2.3,5.2,4.5,7.6,6.6c9.3,8.4,16.1,14.2,16.5,13.7c1.8-2,3.9-4-12-22c-2-2.2-4.3-4.7-6.9-7.5c-1.3-1.4-2.7-2.8-4.2-4.3
	c-1.5-1.5-3.1-3-4.8-4.7c-1.7-1.6-3.5-3.3-5.3-5.1c-1.9-1.8-3.8-3.7-6-5.5c-2.1-1.9-4.3-3.9-6.6-6c-2.3-2-4.7-4.3-7.3-6.4
	c-2.6-2.2-5.3-4.4-8.1-6.8c-1.4-1.2-2.8-2.4-4.3-3.6c-1.5-1.2-3-2.4-4.6-3.6c-3.1-2.5-6.3-5-9.7-7.7c-3.4-2.6-7-5.2-10.7-8
	c-14.8-11-32.1-23.1-52.7-35.7c-20.6-12.6-20-13.8-13.9-12.1c6,1.7,17.4,6.2,18.1,5.1c-27.5-16.2-56.1-30.9-85.5-44
	c-3.7-1.7-7.4-3.2-11.1-4.8c-3.7-1.6-7.4-3.1-11.1-4.7c-3.8-1.5-7.5-3-11.3-4.5l-5.6-2.2c-1.9-0.7-3.8-1.4-5.7-2.1
	c-3.8-1.4-7.6-2.8-11.4-4.2c-3.8-1.4-7.7-2.7-11.5-4c-3.8-1.3-7.7-2.7-11.5-3.9c-3.9-1.2-7.7-2.5-11.6-3.7
	c-31-9.7-62.7-17.5-94.8-23.5c-16-3.1-32.2-5.5-48.5-7.7l-12.2-1.4c-4.1-0.4-8.1-1-12.2-1.3c-8.2-0.7-16.3-1.6-24.5-2
	c-32.7-2.4-65.7-2.6-98.6-1.1c-8.2,0.4-16.5,0.8-24.7,1.6c-8.2,0.7-16.5,1.4-24.7,2.2c-8.2,1-16.4,2-24.6,3
	c-4.1,0.4-8.2,1.2-12.3,1.8l-12.3,2c-32.7,5.5-65,12.8-96.9,22c-31.8,9.3-63.2,20.6-93.8,33.6c-7.6,3.3-15.3,6.4-22.8,10.1
	l-11.3,5.3c-3.8,1.8-7.5,3.5-11.2,5.4L682.4,347l-21.8,12.2c-3.7,2-7.2,4.2-10.7,6.3l-10.7,6.5c-7.2,4.2-14,8.9-21,13.4l-10.4,6.8
	l-10.2,7.2c-6.7,4.8-45.5,32.4-48.6,35.2l-38.7,34.9l-9.1,8.5c-12,11.4-23.8,23.1-35,35.2l-4.3,4.5c-1.4,1.5-2.8,3.1-4.2,4.6
	l-8.3,9.2c-5.4,6.3-10.9,12.5-16.1,18.9c-5.3,6.3-10.5,12.8-15.6,19.3c-2.6,3.2-5,6.5-7.5,9.8l-3.8,4.9l-3.7,5
	c-9.9,13.2-19.1,26.9-28.2,40.7c-18,27.6-34.3,56.3-48.7,85.7c-7.2,14.7-14.1,29.6-20.4,44.7c-6.3,15.1-12.2,30.3-17.7,45.7
	c-10.9,30.7-19.8,62.1-27,93.6l-0.8,3.5v0.1c-7.8,35.3-13.2,70.9-16.4,106.5c-1.6,18.4-2.6,36.9-3,55.3c-0.2,9.2-0.3,18.4-0.1,27.6
	c0.2,9.2,0.5,18.3,0.7,27.5c1.4,30.2,4.3,60.8,8.8,91.4c1.2,7.6,2.5,15.3,3.7,23c1.5,7.7,3,15.3,4.5,23c0.7,3.8,1.6,7.7,2.5,11.5
	c0.9,3.8,1.8,7.7,2.6,11.5l1.3,5.8l0.7,2.9l0.8,2.9c1,3.8,2,7.6,3,11.4c8.1,30.5,17.9,60.9,29.6,90.9c11.8,29.9,24.5,59.8,40.6,88.1
	c99.4,175.8,189.2,244.9,260.1,294.7c54.5,38.4,113.6,70,175.2,94.1c61.6,24.1,125.8,40.6,190,49.2c32.1,4.3,64.3,6.8,96.3,7.4
	c31.9,0.7,63.7-0.3,94.8-3.6c82.2-8.6,153-29,179.6-37.9c8.3-2.8,16.8-5.7,25.6-8.9c0.7-0.2,1.4-0.4,1.9-0.7
	c16.9-6.3,34.7-13.3,52.8-21.2c18.4-8.1,37.2-17.1,56-27c18.8-9.8,37.4-20.7,55.6-32.1l6.8-4.3c2.3-1.4,4.5-2.9,6.7-4.4
	c2.2-1.5,4.5-3,6.7-4.4l3.3-2.2l3.3-2.3c4.4-3.1,8.7-6.1,13.1-9.1c4.3-3.1,8.5-6.2,12.8-9.3c16.8-12.6,32.8-25.6,47.7-38.5
	c14.8-13,28.5-26.1,40.9-38.7c24.7-25.4,44-49.1,56.9-67.6c-30.3,37.3-63.8,72.1-100,103.6c53-48.9,100.9-103.1,141.6-162.5
	c13.1-19,25.3-38.6,36.7-58.6l9.7-17.6c2.9-5.5,5.9-11,8.7-16.5c1-2.1,2.1-4.1,3.1-6.2l5.8-11.9c12.5-26.5,23.6-53.7,33-81.4
	c-1.3-0.5-2.2-0.8-1.1-6.7c1-6,4.4-17.5,10.3-40.6c-6.6,22.9-14.8,48.5-25.1,74.9c-1.3,3.3-2.5,6.7-3.9,10c-1.4,3.3-2.8,6.6-4.1,10
	c-1.4,3.3-2.8,6.7-4.2,10.1c-1.5,3.3-3,6.7-4.5,10.1c-1.1,2.4-2.2,4.8-3.2,7.2l-6.2,13.3c-3.2,6.6-6.5,13.2-9.8,19.7
	c-0.6,1.1-1.1,2.1-1.7,3.2L1800.8,1493.3L1800.8,1493.3z"/>
</svg>
