<?xml version="1.0" encoding="UTF-8"?><svg id="Layer_1" xmlns="http://www.w3.org/2000/svg" viewBox="0 0 500 500"><path d="M500,273c-1.46.23-1.08,1.43-1.18,2.32-2.2,19.38-6.21,38.34-12.66,56.78-12.26,35.06-31.34,65.89-57.26,92.48-26.3,26.97-57.17,46.96-92.47,60.07-20.04,7.44-40.75,12.06-62.01,14.23-1.16.12-2.74-.62-3.41,1.12h-43c-2.06-2.16-4.92-1.46-7.35-1.74-83.15-9.42-157.6-61.55-195.26-138.42-12.32-25.15-20.17-51.65-23.59-79.48-.34-2.78.42-5.94-1.81-8.36v-44c2.16-2.06,1.45-4.92,1.73-7.35C11.93,131.62,70.97,51.85,158.4,17.36c21.33-8.41,43.45-13.58,66.21-16.15,1.17-.13,2.78.61,3.39-1.21h42c.26,1.1,1.16.94,1.96,1.01,35.31,3.02,68.51,13.12,99.4,30.42,43.55,24.4,77.01,58.77,100.33,102.94,13.4,25.39,21.79,52.42,25.98,80.78.56,3.78.83,7.61,1.27,11.41.1.9-.3,2.08,1.07,2.44v44ZM6.03,250.32c-.27,11.05.76,22.01,2.27,32.88,2.42,17.47,6.66,34.54,12.81,51.1,10.78,29,26.36,55.16,47.04,78.17,24.61,27.38,53.88,48.35,87.89,62.6,28.53,11.96,58.32,18.01,89.19,18.79,15.67.4,31.23-1.02,46.69-3.67,29.94-5.13,57.86-15.69,83.87-31.29,22.86-13.71,42.81-30.86,60.1-51.13,16.87-19.77,30.15-41.74,40-65.76,9.07-22.12,14.7-45.14,16.89-68.94,1.17-12.76,1.59-25.55.57-38.4-.81-10.13-1.83-20.22-3.73-30.17-5.06-26.63-14.3-51.77-27.78-75.33-4.97-8.68-10.42-17.03-16.4-25.03-5.88-7.87-12.2-15.39-19.06-22.45-6.96-7.18-14.23-14.02-21.92-20.42-7.59-6.32-15.78-11.8-24-17.22-7.5-4.95-15.4-9.2-23.46-13.17-8.21-4.04-16.72-7.33-25.21-10.72-8.26-3.29-17.01-4.77-25.49-7.21-16.52-4.76-33.63-6.21-50.77-6.8-10.99-.38-21.94.42-32.88,1.63-18.06,1.99-35.61,6.03-52.77,11.98-41.54,14.4-76.57,38.4-105.08,71.76C25.79,137.21,6.92,190.48,6.03,250.32Z" style="fill:#020101; stroke-width:0px;"/><path d="M6.03,250.32c.89-59.84,19.75-113.12,58.78-158.81,28.5-33.36,63.54-57.36,105.08-71.76,17.15-5.95,34.71-9.99,52.77-11.98,10.94-1.21,21.88-2,32.88-1.63,17.14.59,34.25,2.04,50.77,6.8,8.48,2.44,17.23,3.92,25.49,7.21,8.49,3.38,17,6.68,25.21,10.72,8.06,3.97,15.96,8.23,23.46,13.17,8.22,5.42,16.41,10.9,24,17.22,7.69,6.4,14.95,13.25,21.92,20.42,6.85,7.06,13.17,14.58,19.06,22.45,5.98,8,11.43,16.35,16.4,25.03,13.49,23.56,22.72,48.7,27.78,75.33,1.89,9.95,2.92,20.04,3.73,30.17,1.02,12.85.6,25.64-.57,38.4-2.18,23.79-7.82,46.82-16.89,68.94-9.85,24.02-23.13,45.99-40,65.76-17.29,20.26-37.25,37.42-60.1,51.13-26.02,15.6-53.93,26.16-83.87,31.29-15.46,2.65-31.02,4.06-46.69,3.67-30.87-.78-60.65-6.84-89.19-18.79-34.01-14.25-63.28-35.22-87.89-62.6-20.68-23.01-36.26-49.17-47.04-78.17-6.15-16.56-10.4-33.63-12.81-51.1-1.5-10.87-2.54-21.82-2.27-32.88ZM199.92,459.12c-1.92-2.09-.4-4.66-.97-6.94-.26-2.44.55-4.94-.37-7.82-2.71,0-5.16-1.69-8.49-1.23.26,10.19-.36,20.26.96,30.65,3.26-.36,5.85,1.95,8.97,1.02,1-2.21,1.95-4.33,2.93-6.43q1.65-3.56,3.97-4.69v13c2.76,1.5,5.75,1.57,8.69,2.4,3.74-6.2,5.94-12.96,10.14-19.2.96,4.99,4.07,7.2,8.15,8.44,1.59.48,3.16,1.04,4.74,1.55,1.57.51,3.23.88,3.9,2.69-2.81,2.58-5.03,3.25-6.75,1.08-3.11-3.9-6.83-2.01-10.47-2.32.78,4.69,1.71,6.59,4.53,8.13,5.61,3.06,11.46,3.37,17.23.54,3.47-1.7,4.9-4.89,4.82-8.65-.09-3.73-2.14-6.19-5.59-7.44-2.18-.79-4.47-1.31-6.6-2.21-1.56-.66-3.78-.74-3.95-3.33,1.35-2.28,3.87-1.98,5.07-.76,3.12,3.15,6.58,2.22,10.19,2.04.23-3.9-1.78-6.18-4.77-7.68-3.34-1.67-7.16-2.79-10.61-1.54-4.54,1.65-8.63.84-12.9-.35-.61-.17-1.3-.02-2.16-.02-2.29,5.42-4.6,10.87-7.18,16.97-.79-6.77,1.06-12.68.33-18.69-2.41-.93-4.7-1.76-7.4-1.47-2.77,3.74-3.45,8.61-6.39,12.25ZM61.88,250.17c-.24,103.28,84.19,188.38,188.8,187.98,104.13-.4,188.14-85.51,187.49-189.38-.65-103.61-85.6-187.89-189.79-186.93-103.06.95-186.81,84.78-186.5,188.33ZM80.25,144.94c-2.17-3.77-7.76-3.62-8.27-8.88h13.82c3.66-5.48,7.34-10.77,11.43-15.08.05-2-1.49-2.88-1.04-4.62,1.96-1.91,3.6-4.45,6.23-6.34,1.12.55,2.24,1.44,3.9.91,1.9-1.74,3.76-3.82,5.4-6.47-9.71-4.04-19.29-8.02-28.9-12.01-2.36,2.55-4.38,4.74-6.51,7.03,4.44,8.91,9.67,17.28,14.11,26.5h-20.5c-1.87-4.57-1.82-9.43-3.96-14.19-2.13,3.34-3.91,6.12-5.6,8.76.6,4.11,2.79,7.72,2.57,12.21-2.77-1.74-4.92-3.55-7.68-4.64-1.4,2.85-3.7,4.89-4.51,8.02,8.24,5.36,16.3,10.6,24.67,16.04,1.67-2.51,3.22-4.82,4.84-7.26ZM479.66,244.75c.17-2.9.38-5.66-.21-8.96-10.02,2.73-20.04,4.41-29.81,7.64.58,3.38-.38,6.38.62,9.14,5.22,1.53,10.5,1.58,15.34,3.91-5.13,1.02-10.26,2.04-15.54,3.09v9.49c9.79,2.34,19.5,4.66,29.61,7.07.1-3.38.57-6.14-.43-8.96-5.9-1.02-11.7-2.02-17.51-3.03.02-.23.05-.45.07-.68,5.9-1.08,11.81-2.16,17.68-3.23.46-2.84.46-5.27.08-7.74-5.49-1.77-11.17-1.9-16.91-4.01,5.78-2.16,11.6-1.74,17-3.73ZM146.75,441.38v-18.69c-2.84-1.55-4.97-3.68-8.12-4.47-4.96,8.6-9.79,16.99-14.74,25.57,2.82,1.63,5.19,3,7.76,4.49,2.78-4.79,5.34-9.19,8.47-14.55,0,4.87.45,8.72-.1,12.44-.9,6.14,2,9.28,7.33,11.02.29.09.65-.02,1.34-.05,4.68-8.12,9.47-16.42,14.33-24.85-2.32-1.97-4.81-3.22-7.46-4.47-3.42,3.91-4.94,8.98-8.81,13.59ZM316.52,60.61c6.46,2.9,12.12,6.06,18.4,7.75,3.46.93,6.95-.33,8.79-3.06,2.11-3.14,2.58-6.4.3-9.69,8.38-4.58,6.96-11.31,1.6-14.4-5.29-3.05-10.93-5.4-16.98-7.64-4.04,9.03-7.96,17.77-12.1,27.03ZM462.73,200.08c-11,.49-16.87,6.88-16.72,15.2.14,7.89,4.42,16.17,15.09,16.25,9.94.07,16.91-6.38,16.76-15.18-.17-9.64-6.39-16.34-15.12-16.27ZM125.08,428.48c.37-.19.66-.46.95-.46,4.45-.11,6.94-2.66,8.35-6.61,1.37-3.85-1.02-6.4-3.36-8.69-2.72-2.66-5.77-5-8.79-7.32-1.64-1.26-2.89-3.2-5.37-3.71-6.1,7.56-12.12,15.02-18.39,22.78,2.57,1.93,4.42,4.25,7.02,5.52,2.98-1.99,4.1-5.47,7-7.15.6.37,1.05.59,1.43.9,4.14,3.42,4.21,4.21,1.06,8.55-.84,1.17-2.19,2.12-1.91,4.12,2.11,1.71,4.37,3.53,6.98,5.64,1.26-5.07,7.58-7.56,5.03-13.57ZM445.21,162.15c4.84,2.2,8.4,1.35,11.41-2.06,2.82-3.2,1.78-6.66.27-9.81-2.5-5.21-5.43-10.22-8.32-15.59-8.88,4.91-17.52,9.43-25.92,14.69,1.44,2.89,2.34,5.75,4.82,7.71,2.94-1.34,5.39-3.41,8.47-4.27,1.45,1.96,2.49,3.79,2.94,5.74-.95,3.94-5.7,3.55-7.18,6.76.6,3.05,2.57,5.26,4,7.81,2.36-1.56,4.37-2.97,6.47-4.24,2.39-1.45,3.44-3.52,3.04-6.74ZM408.33,397.87c1.56-4.02-.81-6.41-3.31-8.57-2.41-2.08-5.15-1.87-7.91-.5-3.44,1.7-12.86,10.65-15.26,14.62,6.61,6.92,13.23,13.85,19.63,20.55,2.37-2.29,4.44-4.3,6.64-6.43-1.8-2.38-4.4-4.28-6.02-7,.4-1.15,1.39-1.82,2.23-2.59,2.86-2.6,3.44-2.59,6.25-.05,1.45,1.31,2.64,2.94,4.62,3.91,1.85-2.64,4.91-3.9,6.51-6.79-2.46-1.4-4.2-3.15-5.95-4.91-2.04-2.06-4.78-2.01-7.43-2.24ZM35.22,242.86c-9.53.02-15.75,5.81-15.83,14.74-.09,9.93,6.17,16.33,15.96,16.32,9.83,0,15.76-6.02,15.69-15.89-.08-9.46-6.04-15.19-15.81-15.17ZM424.1,107.78c-8.47.07-17.1,8.11-16.69,15.92.41,7.73,7.05,16.37,15.82,16.24,8.37-.12,16.8-8.25,16.69-16.08-.11-8.48-7.66-16.15-15.83-16.08ZM377.58,408.75c-8.11-.02-16.45,7.49-16.4,15.12.05,7.73,7.09,17.29,16.24,17.13,7.93-.15,16.45-8.03,16.2-15.49-.28-8.43-8.16-17.35-16.04-16.76ZM114.06,103.06c1.71-1.4,2.93-2.28,4-3.32,1.01-.97,2.8-1.3,2.82-3.06-1.97-2.55-3.87-5.02-5.92-7.69,2.08-1.46,3.47-3.39,5.58-3.89,3.91.64,4.48,5.15,7.8,6.02,2.55-1.57,4.75-3.31,6.86-5.68-4.09-2.79-5.83-8.72-12.12-7.85,0-.71-.05-1.05,0-1.37.77-3.99-1.13-6.78-4.21-8.87-3.29-2.23-6.33-.87-9.23,1.05-4.98,3.31-9.37,7.33-14.4,11.38,6.33,7.85,12.44,15.41,18.79,23.27ZM171.89,435.78c-9.91-.2-14.82,7.27-15.5,17.45-.49,7.3,8.17,14.63,16.66,14.59,8.13-.04,15.07-8,15.07-17.29,0-8.25-7.04-14.65-16.23-14.75ZM357.19,444.47c-.04,3.14-2.08,4.56-4.52,5.35-2.59.84-4.52-.62-5.97-2.6-1.37-1.87-2.48-3.88-3.17-6.16-.69-2.31-.42-4.35,1.29-5.96,1.68-1.59,3.74-2,5.93-.88.57.29,1.17.52,1.78.78,2.41-1.63,5.17-2.42,7.23-4.37-3.46-5.67-10.64-5.83-15.7-3.64-6.44,2.79-10.3,8.21-10.05,14.08.27,6.63,5.57,14.32,11.33,16.37,2.59.92,5.19.8,7.81.03,4.2-1.23,7.26-3.84,9.32-7.62,2.92,1.45,4.68-.37,6.85-1.9-2.11-5.01-4.88-9.44-7.43-14.17-3.95,2.24-7.78,3.75-11.16,6.19.8,1.96,1.37,3.67,2.65,4.85,1.32.36,2.11-1.26,3.8-.36ZM182.45,30.06c-2.38.84-3.85,1.59-5.39,1.85-3.79.63-5.55,3.09-6.67,6.46-.74,2.24-1.32,4.6-3.07,6.76-1.23-2.89-2.31-5.45-3.5-8.25-2.98,1.09-5.88,1.62-8.56,3.46,3.38,9.25,6.71,18.39,10.08,27.61,3.11-1.04,6.04-1.58,8.43-3.14.27-4.08-4.47-7.42-1.1-11.78,1.24.95,2.32,1.71,3.34,2.55q7.76,6.4,16.97,2.36c.21-.09.33-.4.59-.72-5.72-4.47-11.42-8.92-17.05-13.32,2.03-4.72,3.82-8.91,5.94-13.85ZM290.14,23.34c-.81,1.23-2.23,1.83-2.07,3.41.52,5.28-1.4,10.2-2.53,15.18-1.29,5.71,1.88,10.73,6.33,12.73,3.34,1.5,6.91,2.39,10.64,2.3,5.53-.14,9.08-2.7,10.56-8.1,1.22-4.47,2.05-9.06,2.97-13.61.39-1.9,1.42-3.75.72-5.93-2.67-1.25-5.57-1.4-8.55-1.99-.49,1.97-.92,3.55-1.28,5.16-.98,4.37-1.83,8.78-2.94,13.12-.79,3.09-2.57,4.01-5.59,3.31-2.74-.64-3.69-2.07-3.36-5.17.09-.82.38-1.62.54-2.43,1.08-5.29,2.15-10.58,3.26-16.04-3.03-.68-5.61-1.25-8.71-1.94ZM222.86,21.62c.73,9.86,1.01,19.58,2.23,29.41,3.14.11,5.9.11,8.46-.37,1.78-3.84-1.8-8.52,2.41-11.74,3.29,3.51,5.03,7.81,8.42,10.95,3.47.15,6.91-.07,10.61-1.13-4.29-5.89-8.45-11.62-12.63-17.36,2.48-4.33,6.47-7.21,8.62-11.43-2.32,0-4.31.15-6.26-.04-2.88-.28-4.66,1.09-6.18,3.33-1.54,2.26-3.01,4.62-5.34,6.52-.47-3.05-.9-5.79-1.36-8.78-3.02.06-5.78-.1-8.98.62ZM50.69,274.06c-6.06,4.82-10.45,10.79-16.21,15.07-4.37-2.31-7.87-5.3-12.29-7.19-.43,2.17.7,3.64.79,5.27.18,3.45,1.87,5.7,5.08,7.25,2.23,1.07,4.9,1.75,6.56,4.18-2.98.69-5.7,1.32-8.62,2,.55,3.21.53,6.34,2.36,9.11,9.67-2.09,19.12-4.14,29.04-6.28-1.72-3.04-.88-6.13-2.45-8.26-4.06-1.45-8.01,3.03-11.75-.72,3.31-3.36,6.55-6.65,9.8-9.96-.75-3.42-1.46-6.64-2.31-10.47ZM253.88,452c-.17,5.13.39,9.88.92,14.65.52,4.74.87,9.5,1.33,14.58,3.12-.28,5.91.13,8.61-.97.79-2.04.18-4.02.16-5.97-.02-2.06-.6-4.34,2.37-5.33,2.7,3.62,5.37,7.18,8.02,10.73,3.61-.34,7.01-.65,11.14-1.04-4.73-6.22-9.1-11.96-13.39-17.6,2.66-4.32,6.41-7.43,8.95-12.1-3.79.43-7.05.8-10.45,1.19-2.41,3.21-4.83,6.45-7.89,10.51-.38-3.86-.64-6.58-.94-9.7-2.98.19-5.74-.32-8.83,1.05ZM40.98,238.62c6.25-.3,9.33-3.59,10.87-8.65.43-1.42.73-2.91.87-4.39.67-7.13-2.07-14.67-12.55-13.5-.32.04-.64.15-.62.15-3.11,2.17-4.63,5.08-5.78,8.26-.62,1.71-1.31,3.41-2.13,5.03-.54,1.06-1.41,1.89-3.08,1.26-1.16-1.93-1.16-3.88.68-5.62,3-2.82,2.34-6.3,2.41-9.88-5.25,1.21-6.07,1.53-7.66,3.92-3.34,5.03-3.9,10.51-1.96,16.16,1.21,3.54,4.18,5.24,7.7,5.34,3.04.09,5.78-.95,7.47-3.99,1.46-2.63,2.53-5.4,3.69-8.15.66-1.56,1.27-3.31,3.47-2.66,1.49.44,1.79,2.71.82,4.84-.2.45-.34,1.07-.7,1.29-4,2.47-2.91,6.49-3.51,10.57ZM318.53,439.67c-7.8,2.26-15.21,4.4-22.87,6.62,3.13,9.81,5.22,19.33,8.57,28.66,7.86-2.29,15.39-4.48,23.22-6.76-.8-2.49-.98-4.6-2.14-6.25-2.55-.35-4.53.78-6.55,1.36-1.97.57-3.89.67-5.87.75-2.29.1-2.82-1.09-2.59-3.13,3.56-1.53,7.46-1.79,10.72-3.64.2-2.32-.93-4.03-1.41-6.14-3.82,1.02-7.44,1.99-11.28,3.02-.68-1.28-1.79-2.17-.73-3.95,2.65-.74,5.46-1.75,8.37-2.27,4.36-.79,4.73-1.15,3.54-5.33-.22-.78-.51-1.54-.97-2.93ZM389.22,77.23c2.72-4.24,1.68-7.62-.58-10.76-2.62-3.65-6.38-5.84-10.58-7.13-3.49-1.08-7.66.64-9.6,3.73-1.92,3.06-2.25,6.26.01,9.33,1.87,2.54,3.88,4.98,5.78,7.5,1.14,1.51,1.38,2.97-.76,4.21-2.47-1.06-5-1.91-4.84-5.41.04-.89-.64-1.5-1.33-1.99-1.88-1.33-3.76-2.65-5.76-4.06-2.48,3.34-2.13,6.52-.61,9.65,2.15,4.46,6.06,6.98,10.47,8.7,4.68,1.83,8.98.62,11.56-2.97,2.67-3.72,2.46-7.1-.81-11.37-1.51-1.98-3.2-3.83-4.68-5.84-.78-1.06-1.45-2.32-.15-3.55,2.84.37,4.2.72,4.4,2.2.61,4.47,4.63,5.2,7.48,7.76ZM394.02,99.74c2.28.92,3.68,2.87,5.45,4.31,4.87,3.98,9.54,3.95,13.84-.13,4.38-4.15,4.77-9.38.6-14.22-3.77-4.38-8-8.36-12.6-11.89-1.64,1.2-3.55,1.96-4.44,3.37-3.76,5.99-9.36,10.3-13.81,15.64-.71.85-1.71,1.55-1.74,2.99,2.08,1.77,3.79,4.05,6.3,5.51,2.67-1.28,3.85-4.2,6.4-5.59ZM49.28,195.95c-2.73-4.63-5.6-8.89-7.83-13.46-1.93-3.96-4.84-5.5-9.3-5.64-2.41,7.77-4.79,15.48-7.16,23.14q3.86,1.84,7.24,1.88c1.8-3.07,1.67-6.95,3.56-9.84,1.58-.31,2.03.57,2.54,1.47,2.06,3.6,4.34,7.09,6.2,10.79,1.93,3.84,5.01,4.81,9.06,4.69,2.51-8.21,4.97-16.24,7.46-24.37-2.45-1.02-4.56-1.81-7.03-2.08-2.19,4.11-2.48,8.86-4.73,13.42ZM133.77,75.66c2.5,3.43,5.76,4.9,9.63,4.29,5.27-.83,9.74-3.34,12.96-7.7,2.31-3.13,2.29-6.52.4-9.85-1.93-3.4-4.94-4.88-8.8-4.3-2.13.32-4.19,1.04-6.3,1.46-1.87.37-3.82,1.23-5.71-.21-.2-3.13,2.42-4.28,4.11-3.8,4.43,1.25,6.62-1.69,9.69-3.6-1.83-3-4.33-4.07-7.3-3.99-5.88.15-10.59,2.85-13.98,7.51-2.1,2.88-2.2,6.24-.23,9.4,1.94,3.12,4.82,4.56,8.46,4.04,2.29-.33,4.52-1.05,6.79-1.52,1.75-.36,3.54-1.06,5.27.1-.42,3.7-1.89,5.15-5.34,4.36-2.02-.47-3.45-.14-5.03.86-1.39.89-3.05,1.32-4.62,2.96ZM103.55,387.85c-9.81,4.3-19.17,8.41-28.97,12.71,2.24,2.42,4.14,4.47,5.76,6.21,1.98.73,3.05-1.45,4.96-.37,1.79,1.89,3.83,4.04,5.63,5.93-.16,1.86-1.79,2.57-1.49,4.29,1.87,1.97,3.87,4.06,6.07,6.38,5.1-9.74,9.92-18.95,14.73-28.14-2.38-2.49-4.44-4.64-6.7-7.01ZM33.6,171.21c5.84-.7,10.77-1.2,15.67-1.89,3.7-.52,7.22-.6,10.6,1.46,1.65,1,3.6,1.49,5.67,2.31,1.11-2.97,2.86-5.4,3.5-8.53-1.18-.57-2.17-1.19-3.25-1.54-4.98-1.61-8.38-4.88-11.21-9.27-2.38-3.68-4.85-7.44-8.34-10.83-1.41,3.15-2.68,5.98-3.89,8.67,1.57,3.56,5.08,5.53,6.18,9.2-3.59.69-7.14-.15-10.64.88-1.31,2.91-2.6,5.76-4.3,9.54ZM418.16,361.23c-2.67,3.14-4.74,5.47-6.25,8.13,1.48,3.2,2.85,6.19,4.34,9.41-4.05.87-7.44-1.44-11.27-.93-1.66,2.55-4.21,4.67-5.49,7.94,6.1.81,11.85,1.61,17.62,2.31,2.41.29,4.42,1.29,6.27,2.79,1.89,1.53,3.67,3.26,6.2,4.22,1.88-2.49,3.64-4.82,5.37-7.13-1.45-1.24-2.47-2.42-3.75-3.13-3.91-2.17-5.84-5.64-7.3-9.68-1.62-4.48-3.63-8.81-5.76-13.93ZM477.99,282.77c-3.4,1.17-6.02,2.14-8.68,2.96-6.75,2.09-13.5,4.31-20.71,2.17-.59-.17-1.28-.02-2.11-.02-.74,2.92-2.02,5.62-1.34,8.77,1.75.44,3.32,1.08,4.94,1.2,3.53.25,6.25,1.79,8.73,4.23,2.96,2.92,6.16,5.59,9.27,8.36,1.04.93,2.01,2.03,3.94,2.15-.41-3.3,1.64-5.98,1.05-9.13-2.05-2.85-5.39-4.35-7.92-7.23,3.39-2,7.58-1.5,10.66-3.67.68-3.07,1.32-5.95,2.17-9.77ZM64.03,387.32c2.21,2.5,3.46,5.3,6.13,7.07,6.14-3.83,11.07-9.07,17.3-12.74,1.78,2.11,3.38,3.99,5.09,6.01,2.24-1.13,4.06-2.7,6.01-4.81-5.39-6.88-10.68-13.64-16.01-20.44-2.46,1.06-4.24,2.68-5.96,4.63.43.73.7,1.31,1.08,1.82,3.5,4.71,3.44,5.28-1.03,8.72-4.07,3.14-8.13,6.29-12.59,9.75ZM441.52,192.83c7.28-1.79,13.76-4.83,20.57-6.12,2.31,2,1.2,5.39,3.64,7.3,1.52-.47,3.09-.91,4.63-1.45.6-.21,1.13-.62,2.09-1.16-2.67-8.19-5.31-16.3-8.09-24.83-2.63.81-5.02,1.15-7.02,2.45-.12,2.91,2.02,5.1,1.6,8.01-6.49,2.85-13.54,4.1-20.05,7.19.48,3.02,1.56,5.58,2.63,8.61ZM268.09,42.72c-.82-7.3,1.31-14.3.7-21.81-3.09.25-5.86-1.31-9.3-.21-.39,9.67-1.74,19.29-1.59,29.11,7.49,1.52,14.73.84,21.94,1.98.33-2.91.58-5.15.85-7.53-4.29-1.18-8.47-.84-12.6-1.55ZM205.46,55.26c-2.35-10.08-4.45-19.65-7.44-29.29-3.21,1.26-6.23,1.32-9.05,2.81,2.2,8.76,4.36,17.41,6.56,26.04.19.76.29,1.65,1.44,2.37,2.4-.54,5.1-1.16,8.49-1.92ZM283.67,448.21c1.67,10.15,3.13,19.84,5.35,29.59,3.29-1.12,6.48-.33,9.14-2.56-1.96-9.4-2.95-19.04-5.3-28.23-3.33-.2-5.79.97-9.2,1.2ZM362.98,404.76c.22,2.37.44,4.85,1.76,7.57,3.36-3.35,2.07-6.89,2.19-10.37-1.97.33-2.95,1.39-3.95,2.8Z" style="fill:#f5c70b; stroke-width:0px;"/><path d="M61.88,250.17c-.31-103.54,83.44-187.38,186.5-188.33,104.19-.96,189.14,83.31,189.79,186.93.65,103.87-83.36,188.98-187.49,189.38-104.6.4-189.03-84.7-188.8-187.98ZM366.62,110.1c-22.9-18.92-48.18-31.19-76.19-37.84-16.25-3.86-31.64-5.12-37.22-3.49-1,16.78-.51,136.61.71,141.08,18.87-.14,37.69,2.68,56.68,4.58,4.91-19.83,11.52-38.36,20.72-55.88,9.29-17.71,20.83-33.86,35.3-48.45ZM246.64,209.16V67.85c-42.96,1.29-80.62,15.34-113.64,42.6,28.42,28.7,45.21,63.41,55.3,101.81,19.68-2.2,38.89-3,58.34-3.11ZM431.49,245.48c1.52-41.52-20.57-97.92-60.39-131.15-28.15,28.29-44.87,62.63-54.52,101.32,39.63,6.37,77.58,16.58,114.91,29.83ZM264.11,380.51c.03-.36.07-.71.1-1.07,2.95,0,5.9.09,8.84-.02,7.16-.25,14.28-.76,21.04-3.49,6.78-2.74,9.87-7.4,9.51-14.52-8.44,0-16.89.09-25.33-.02-10-.14-19.91-1.86-25.28-4.27,3.29-.46,6.25-.8,9.19-1.29,7.52-1.28,15.18-1.78,22.57-3.82,2.5-.69,4.98-1.45,6.65-5.09-6.05,2.27-11.51,3.1-16.87,4.57-5.45,1.5-11.41,1.12-17.15,1.57,2.38-1.41,4.86-2.29,7.33-3.16,10.74-3.77,20-9.7,27.31-18.54,3-3.64,5.59-7.51,6.42-12.22.61-3.5,0-6.8-3.24-9.51-14.48,13.36-31.11,22.77-49.24,30.37.03-2.3,1.46-2.86,2.46-3.54,11.14-7.55,18.91-18.09,26.12-29.14,1.5-2.31,2.37-4.88,2.97-7.61-.8.16-1.28.22-1.73.37-.52.16-.59.67-.83,1.09-6.15,10.74-13.63,20.44-22.43,29.15-2.1,2.08-4.5,3.39-7.26,4.52-.04-.7-.2-1.12-.06-1.3,7.68-9.36,11.98-20.26,14.28-31.97,1.59-8.09,1.8-16.14-2.49-23.74-2.23-3.94-4.87-6.89-9.79-6.67-.75.58-.94,1.37-1.03,2.22-.66,6.45-1.79,12.83-3.1,19.17-2.33,11.22-5.23,22.27-10.49,32.55-.39.77-.51,2.05-1.95,1.75-.18-.27-.58-.62-.51-.79,1.6-3.83,1.25-8.02,1.9-11.99,1.81-11.02,1.62-22.21-.78-33.23-.34-1.56-.56-3.38-3.39-3.73,1.61,16.31,2.16,32.47-.29,48.59-.37-.62-.57-1.26-.57-1.89.03-7.68-.92-15.26-2.12-22.83-1.48-9.3-4.34-18.07-9.82-25.84-2.55-3.61-5.7-6.45-9.86-8.14-3.16-1.28-6.07-1-8.84.74-.12,1.33.67,2.05,1.15,2.88,3.91,6.68,6.34,13.89,7.6,21.48,1.62,9.74.98,19.59,1.25,29.4.21,7.67-1.41,14.75-4.83,21.61-3.2,6.42-.83,12.53,5.68,15.77,1.48.74,3.07,1.26,4.56,1.98,7.24,3.5,9.54,8.49,7.85,16.27-1.05,4.84-3.32,8.62-7.8,10.96-.73.38-1.4.9-2.04,1.43-4.01,3.36-4.33,6.7-.9,10.68,2.83,3.28,6.54,5.15,10.75,5.82,5.84.94,11.13,3.18,16.24,6.06,3.9,2.2,7.98,4.08,12.24,5.5,2.68.9,5.44,1.59,8.32,1.28,3.63-.39,6.64-1.77,8.64-5.41-2.42-1.43-4.7-2.74-6.95-4.11-2.27-1.38-4.46-2.91-6.78-4.21-2.54-1.41-4.71-3.09-5.97-6.13,2.99.07,5.14,1.76,7.5,2.77,2.87,1.22,5.54,3.62,8.45,3.9,4.78.47,9.48,1.72,14.36,1.49,7.18-.33,9.8-2.23,12.15-9.83-11.15-3.21-22.34-6.48-31.82-13.94,2.69-1.44,4.74.5,7.02.42,3.5-.12,6.58,2.62,10.26,1.72,2.6,2.42,6.11,2.1,9.21,3.01,2.01.59,2.71.18,6.05-1.67-4.48-.88-8.7-1.48-12.66-2.53-3.86-1.02-7.98-2.21-11.77-3.89ZM182.16,212.98c-10-37.61-26.19-71-53.99-98.54-37.95,35.62-58.03,78.68-60.36,130.89,36.95-16.41,74.77-27.03,114.36-32.34ZM183.64,219.32c-18.51-.48-92.83,19.69-101.7,27.4h106.07c-.67-9.38-2.42-18.25-4.38-27.4ZM246.82,246.76v-30.44c-5.87-1.81-44.12-.27-57.13,2.34,1.98,9.27,3.3,18.67,4.71,28.11h52.42ZM253.2,246.69h51.73c1.34-8.56,2.64-16.86,3.94-25.12-5.83-2.87-47.4-6.65-55.67-5.04v30.16ZM415.03,246.79c-32.37-11.13-65.44-19.99-99.67-25.08-2.15,8.61-3.28,16.68-4.14,25.08h103.81Z" style="fill:#020101; stroke-width:0px;"/><path d="M199.92,459.12c2.95-3.64,3.62-8.51,6.39-12.25,2.7-.3,4.99.54,7.4,1.47.73,6.02-1.12,11.93-.33,18.69,2.58-6.1,4.88-11.55,7.18-16.97.86,0,1.55-.15,2.16.02,4.27,1.19,8.36,2,12.9.35,3.45-1.25,7.27-.14,10.61,1.54,2.99,1.5,5.01,3.78,4.77,7.68-3.62.18-7.07,1.11-10.19-2.04-1.2-1.22-3.72-1.52-5.07.76.18,2.59,2.39,2.67,3.95,3.33,2.13.9,4.42,1.42,6.6,2.21,3.45,1.26,5.5,3.71,5.59,7.44.09,3.76-1.35,6.95-4.82,8.65-5.77,2.82-11.62,2.52-17.23-.54-2.82-1.54-3.75-3.44-4.53-8.13,3.64.3,7.37-1.58,10.47,2.32,1.73,2.17,3.94,1.5,6.75-1.08-.66-1.82-2.33-2.18-3.9-2.69-1.58-.51-3.15-1.07-4.74-1.55-4.07-1.23-7.19-3.44-8.15-8.44-4.2,6.24-6.4,13-10.14,19.2-2.94-.83-5.93-.9-8.69-2.4v-13q-2.31,1.14-3.97,4.69c-.98,2.11-1.93,4.23-2.93,6.43-3.12.93-5.71-1.38-8.97-1.02-1.33-10.39-.7-20.46-.96-30.65,3.32-.47,5.77,1.22,8.49,1.23.92,2.88.12,5.38.37,7.82-1.2,3.36-.74,6.78-.76,10.47,1.61-1.01,2-2.13,1.73-3.54Z" style="fill:#020101; stroke-width:0px;"/><path d="M80.25,144.94c-1.63,2.44-3.17,4.75-4.84,7.26-8.36-5.44-16.42-10.68-24.67-16.04.81-3.13,3.11-5.18,4.51-8.02,2.76,1.09,4.91,2.9,7.68,4.64.23-4.49-1.96-8.1-2.57-12.21,1.69-2.64,3.47-5.43,5.6-8.76,2.14,4.76,2.09,9.62,3.96,14.19h20.5c-4.45-9.22-9.67-17.59-14.11-26.5,2.13-2.3,4.15-4.48,6.51-7.03,9.61,4,19.19,7.98,28.9,12.01-1.64,2.65-3.5,4.73-5.4,6.47-1.66.53-2.78-.36-3.9-.91-2.64,1.88-4.28,4.42-6.23,6.34-.45,1.74,1.09,2.62,1.04,4.62-4.09,4.31-7.77,9.6-11.43,15.08h-13.82c.51,5.26,6.1,5.1,8.27,8.88ZM89.43,104.68c-.62,2.65.68,4.07,2.42,5.52,1.53-.86,3.27-1.25,4.19-3.76-2.44-.35-4.51-.64-6.61-1.76Z" style="fill:#020101; stroke-width:0px;"/><path d="M479.66,244.75c-5.41,1.99-11.22,1.57-17,3.73,5.74,2.1,11.42,2.24,16.91,4.01.38,2.47.38,4.9-.08,7.74-5.88,1.07-11.78,2.15-17.68,3.23-.02.23-.05.45-.07.68,5.81,1,11.61,2.01,17.51,3.03,1,2.83.54,5.58.43,8.96-10.1-2.41-19.82-4.74-29.61-7.07v-9.49c5.28-1.05,10.41-2.07,15.54-3.09-4.84-2.33-10.12-2.38-15.34-3.91-1-2.76-.04-5.76-.62-9.14,9.77-3.23,19.79-4.9,29.81-7.64.58,3.3.38,6.06.21,8.96Z" style="fill:#020101; stroke-width:0px;"/><path d="M146.75,441.38c3.87-4.61,5.39-9.68,8.81-13.59,2.64,1.26,5.13,2.5,7.46,4.47-4.86,8.43-9.65,16.73-14.33,24.85-.69.04-1.05.15-1.34.05-5.33-1.74-8.23-4.88-7.33-11.02.55-3.71.1-7.57.1-12.44-3.12,5.37-5.68,9.77-8.47,14.55-2.57-1.49-4.94-2.86-7.76-4.49,4.94-8.58,9.78-16.97,14.74-25.57,3.15.79,5.28,2.92,8.12,4.47v18.69Z" style="fill:#020101; stroke-width:0px;"/><path d="M316.52,60.61c4.15-9.26,8.06-18,12.1-27.03,6.04,2.24,11.69,4.59,16.98,7.64,5.36,3.09,6.78,9.81-1.6,14.4,2.27,3.28,1.8,6.55-.3,9.69-1.83,2.73-5.33,4-8.79,3.06-6.28-1.7-11.93-4.86-18.4-7.75ZM327.88,58.11c1.95.87,3.59,1.55,5.19,2.33,1.7.83,2.91.24,3.65-1.3.78-1.62.09-2.96-1.37-3.73-1.56-.83-3.08-1.83-4.95-2.08-1.4,1.08-1.76,2.69-2.52,4.78ZM340.84,46.76c-1.79-1.3-3.62-2.61-5.96-3.02-1.47,1.08-1.99,2.52-2.31,4.05,5.61,3.38,6.36,3.3,8.27-1.03Z" style="fill:#020101; stroke-width:0px;"/><path d="M462.73,200.08c8.73-.07,14.95,6.63,15.12,16.27.15,8.8-6.82,15.25-16.76,15.18-10.67-.08-14.95-8.36-15.09-16.25-.15-8.32,5.72-14.71,16.72-15.2ZM463.69,209.82c-2.34.04-4.67.16-6.8,1.28-2.61,1.37-3.52,3.23-3.05,6.17.45,2.81,2.06,4.36,5.01,4.65,2.35.24,4.64-.18,6.85-.97,3.48-1.25,4.94-3.63,4.26-6.85-.66-3.11-2.36-4.27-6.28-4.28Z" style="fill:#020101; stroke-width:0px;"/><path d="M125.08,428.48c2.55,6.01-3.77,8.51-5.03,13.57-2.62-2.12-4.87-3.94-6.98-5.64-.28-2.01,1.06-2.96,1.91-4.12,3.15-4.34,3.07-5.13-1.06-8.55-.38-.31-.83-.53-1.43-.9-2.9,1.68-4.02,5.16-7,7.15-2.6-1.27-4.45-3.59-7.02-5.52,6.26-7.76,12.29-15.22,18.39-22.78,2.49.5,3.73,2.44,5.37,3.71,3.02,2.33,6.07,4.66,8.79,7.32,2.34,2.29,4.73,4.83,3.36,8.69-1.4,3.95-3.9,6.5-8.35,6.61-.29,0-.58.27-.95.46ZM116.78,417.15c5.4,5.21,6.79,5.33,8.79.78-1.51-1.82-3.27-3.48-5.38-4.83-1.51,1.03-2.35,2.41-3.4,4.06Z" style="fill:#020101; stroke-width:0px;"/><path d="M445.21,162.15c.39,3.22-.65,5.29-3.04,6.74-2.1,1.27-4.11,2.69-6.47,4.24-1.43-2.55-3.4-4.76-4-7.81,1.48-3.21,6.23-2.82,7.18-6.76-.45-1.95-1.5-3.78-2.94-5.74-3.08.86-5.53,2.93-8.47,4.27-2.48-1.96-3.38-4.81-4.82-7.71,8.4-5.26,17.04-9.78,25.92-14.69,2.9,5.37,5.83,10.37,8.32,15.59,1.51,3.15,2.55,6.61-.27,9.81-3,3.41-6.57,4.26-11.41,2.06ZM449.93,153.14c-.66-2.23-1.38-4.58-3.55-6.25-1.59.78-3.4,1.15-4.43,3.01,1.67,2.11,2.22,4.94,4.85,5.96,1.58-.41,2.57-1.18,3.13-2.72Z" style="fill:#020101; stroke-width:0px;"/><path d="M408.33,397.87c2.65.23,5.39.19,7.43,2.24,1.75,1.76,3.49,3.52,5.95,4.91-1.6,2.9-4.66,4.15-6.51,6.79-1.98-.97-3.17-2.6-4.62-3.91-2.81-2.55-3.38-2.55-6.25.05-.84.76-1.84,1.43-2.23,2.59,1.63,2.73,4.23,4.63,6.02,7-2.19,2.12-4.27,4.13-6.64,6.43-6.41-6.71-13.03-13.64-19.63-20.55,2.4-3.97,11.82-12.92,15.26-14.62,2.76-1.36,5.5-1.57,7.91.5,2.5,2.16,4.87,4.54,3.31,8.57ZM397.64,405.55c1.17-1.39,2.19-2.7,3.3-3.91,1.17-1.29,1.53-2.57.15-3.89-1.29-1.24-2.71-1.16-4-.04-1.36,1.17-2.87,2.21-3.75,3.89.94,1.39,2.03,2.59,4.31,3.95Z" style="fill:#020101; stroke-width:0px;"/><path d="M35.22,242.86c9.77-.02,15.73,5.71,15.81,15.17.08,9.87-5.85,15.88-15.69,15.89-9.79,0-16.05-6.39-15.96-16.32.08-8.93,6.31-14.73,15.83-14.74ZM35,264.21c1.2-.08,2.54-.05,3.84-.29,2.87-.55,4.92-2.87,4.96-5.43.04-2.63-1.79-4.77-4.73-5.6-2.61-.74-5.18-.82-7.82,0-3.08.97-4.21,2.25-4.26,5.23-.05,2.92,1.58,5.11,4.41,5.75,1.12.25,2.3.22,3.59.33Z" style="fill:#020101; stroke-width:0px;"/><path d="M424.1,107.78c8.17-.07,15.71,7.6,15.83,16.08.1,7.83-8.33,15.96-16.69,16.08-8.77.12-15.41-8.52-15.82-16.24-.42-7.81,8.22-15.85,16.69-15.92ZM421.6,131c3.19-.13,8.89-4.4,9.94-7.45,1.11-3.22-2.83-7.86-6.17-6.99-3.41.88-6.43,2.68-8.62,5.57-1.34,1.77-1.33,3.88-.33,5.65,1.06,1.87,2.62,3.49,5.18,3.22Z" style="fill:#020101; stroke-width:0px;"/><path d="M377.58,408.75c7.89-.6,15.76,8.33,16.04,16.76.25,7.45-8.27,15.34-16.2,15.49-9.15.17-16.19-9.39-16.24-17.13-.05-7.63,8.29-15.14,16.4-15.12ZM375.99,417.84c-4.68.16-6.98,2.57-5.68,6.3,1.11,3.16,3.12,5.81,5.93,7.75,1.87,1.29,3.7,1.14,5.54-.1,2.65-1.78,3.36-3.78,2.38-6.76-1.59-4.81-4.43-7.32-8.17-7.19Z" style="fill:#020101; stroke-width:0px;"/><path d="M114.06,103.06c-6.35-7.86-12.45-15.43-18.79-23.27,5.03-4.05,9.42-8.07,14.4-11.38,2.89-1.92,5.94-3.28,9.23-1.05,3.08,2.09,4.97,4.88,4.21,8.87-.06.32,0,.66,0,1.37,6.28-.87,8.03,5.06,12.12,7.85-2.11,2.37-4.31,4.11-6.86,5.68-3.32-.88-3.89-5.38-7.8-6.02-2.12.5-3.5,2.43-5.58,3.89,2.06,2.67,3.96,5.14,5.92,7.69-.03,1.76-1.81,2.08-2.82,3.06-1.07,1.03-2.29,1.91-4,3.32ZM110.8,83.47c.71-.42,1.29-.7,1.8-1.08.66-.49,1.29-1.01,1.87-1.59,2.54-2.54,2.31-3.6-1.45-5.82-1.9,1.31-4.04,2.46-5.66,4.41.82,1.48,1.67,2.83,3.44,4.07Z" style="fill:#020101; stroke-width:0px;"/><path d="M171.89,435.78c9.19.09,16.23,6.49,16.23,14.75,0,9.29-6.95,17.26-15.07,17.29-8.49.04-17.15-7.28-16.66-14.59.69-10.19,5.6-17.66,15.5-17.45ZM165.8,453.64c-.11,2.9,1.07,4.82,3.59,5.86,2.32.96,4.89.26,6.51-2.14,1.57-2.33,2.75-4.92,3.01-7.77.24-2.64-.96-4.55-3.25-5.55-2.68-1.17-4.85-.81-6.62,1.48-1.84,2.36-3.18,5.01-3.24,8.12Z" style="fill:#020101; stroke-width:0px;"/><path d="M357.19,444.47c-1.68-.9-2.47.72-3.8.36-1.29-1.19-1.85-2.9-2.65-4.85,3.38-2.44,7.21-3.95,11.16-6.19,2.55,4.73,5.32,9.16,7.43,14.17-2.16,1.54-3.93,3.35-6.85,1.9-2.06,3.78-5.12,6.39-9.32,7.62-2.62.77-5.23.9-7.81-.03-5.76-2.05-11.06-9.75-11.33-16.37-.24-5.87,3.61-11.29,10.05-14.08,5.05-2.19,12.24-2.03,15.7,3.64-2.06,1.94-4.82,2.74-7.23,4.37-.61-.26-1.21-.49-1.78-.78-2.19-1.11-4.25-.7-5.93.88-1.71,1.61-1.98,3.65-1.29,5.96.68,2.28,1.8,4.29,3.17,6.16,1.45,1.97,3.38,3.44,5.97,2.6,2.44-.79,4.47-2.21,4.52-5.35Z" style="fill:#020101; stroke-width:0px;"/><path d="M182.45,30.06c-2.12,4.94-3.92,9.13-5.94,13.85,5.63,4.4,11.33,8.85,17.05,13.32-.25.32-.37.63-.59.72q-9.2,4.05-16.97-2.36c-1.02-.84-2.09-1.6-3.34-2.55-3.36,4.37,1.37,7.71,1.1,11.78-2.4,1.55-5.32,2.09-8.43,3.14-3.37-9.23-6.7-18.36-10.08-27.61,2.68-1.84,5.58-2.37,8.56-3.46,1.19,2.8,2.27,5.35,3.5,8.25,1.75-2.17,2.33-4.53,3.07-6.76,1.11-3.37,2.88-5.83,6.67-6.46,1.55-.26,3.01-1.01,5.39-1.85Z" style="fill:#020101; stroke-width:0px;"/><path d="M290.14,23.34c3.1.69,5.68,1.27,8.71,1.94-1.11,5.46-2.18,10.75-3.26,16.04-.17.81-.46,1.61-.54,2.43-.33,3.1.62,4.53,3.36,5.17,3.02.71,4.8-.22,5.59-3.31,1.1-4.34,1.95-8.75,2.94-13.12.36-1.6.79-3.19,1.28-5.16,2.98.59,5.88.75,8.55,1.99.7,2.18-.33,4.03-.72,5.93-.93,4.55-1.75,9.13-2.97,13.61-1.47,5.4-5.03,7.97-10.56,8.1-3.72.09-7.3-.8-10.64-2.3-4.45-2-7.62-7.02-6.33-12.73,1.13-4.98,3.05-9.9,2.53-15.18-.16-1.58,1.26-2.18,2.07-3.41Z" style="fill:#020101; stroke-width:0px;"/><path d="M222.86,21.62c3.19-.72,5.95-.56,8.98-.62.46,2.99.89,5.73,1.36,8.78,2.33-1.9,3.8-4.26,5.34-6.52,1.52-2.24,3.3-3.61,6.18-3.33,1.95.19,3.93.04,6.26.04-2.15,4.21-6.14,7.09-8.62,11.43,4.17,5.74,8.34,11.47,12.63,17.36-3.7,1.06-7.14,1.28-10.61,1.13-3.4-3.14-5.13-7.44-8.42-10.95-4.21,3.22-.63,7.9-2.41,11.74-2.56.47-5.31.48-8.46.37-1.22-9.84-1.49-19.55-2.23-29.41Z" style="fill:#020101; stroke-width:0px;"/><path d="M50.69,274.06c.84,3.83,1.55,7.05,2.31,10.47-3.25,3.3-6.49,6.59-9.8,9.96,3.74,3.75,7.69-.74,11.75.72,1.57,2.13.73,5.22,2.45,8.26-9.92,2.15-19.37,4.19-29.04,6.28-1.83-2.78-1.81-5.9-2.36-9.11,2.92-.68,5.64-1.31,8.62-2-1.65-2.42-4.33-3.1-6.56-4.18-3.21-1.55-4.9-3.8-5.08-7.25-.09-1.63-1.22-3.1-.79-5.27,4.42,1.89,7.92,4.88,12.29,7.19,5.76-4.28,10.15-10.24,16.21-15.07Z" style="fill:#020101; stroke-width:0px;"/><path d="M253.88,452c3.09-1.36,5.85-.86,8.83-1.05.3,3.11.57,5.84.94,9.7,3.05-4.07,5.47-7.3,7.89-10.51,3.4-.39,6.67-.76,10.45-1.19-2.55,4.67-6.3,7.78-8.95,12.1,4.29,5.64,8.66,11.38,13.39,17.6-4.13.39-7.53.7-11.14,1.04-2.66-3.55-5.32-7.11-8.02-10.73-2.97.98-2.39,3.26-2.37,5.33.02,1.95.63,3.93-.16,5.97-2.7,1.1-5.49.68-8.61.97-.46-5.08-.81-9.84-1.33-14.58-.52-4.76-1.09-9.51-.92-14.65Z" style="fill:#020101; stroke-width:0px;"/><path d="M40.98,238.62c.6-4.08-.48-8.1,3.51-10.57.36-.22.49-.84.7-1.29.97-2.13.67-4.39-.82-4.84-2.2-.66-2.81,1.09-3.47,2.66-1.16,2.75-2.23,5.52-3.69,8.15-1.69,3.04-4.43,4.08-7.47,3.99-3.51-.11-6.49-1.81-7.7-5.34-1.94-5.65-1.38-11.13,1.96-16.16,1.59-2.39,2.41-2.71,7.66-3.92-.07,3.58.59,7.06-2.41,9.88-1.84,1.73-1.84,3.68-.68,5.62,1.67.63,2.54-.19,3.08-1.26.82-1.62,1.51-3.32,2.13-5.03,1.15-3.18,2.66-6.09,5.78-8.26-.02,0,.3-.11.62-.15,10.47-1.17,13.21,6.37,12.55,13.5-.14,1.48-.44,2.97-.87,4.39-1.54,5.06-4.62,8.35-10.87,8.65Z" style="fill:#020101; stroke-width:0px;"/><path d="M318.53,439.67c.46,1.39.75,2.15.97,2.93,1.19,4.18.81,4.55-3.54,5.33-2.9.52-5.72,1.53-8.37,2.27-1.06,1.79.05,2.67.73,3.95,3.84-1.03,7.46-1.99,11.28-3.02.48,2.11,1.61,3.83,1.41,6.14-3.26,1.85-7.15,2.11-10.72,3.64-.22,2.04.3,3.23,2.59,3.13,1.98-.08,3.9-.18,5.87-.75,2.02-.59,4.01-1.71,6.55-1.36,1.16,1.66,1.34,3.76,2.14,6.25-7.83,2.28-15.36,4.47-23.22,6.76-3.35-9.33-5.44-18.85-8.57-28.66,7.66-2.22,15.06-4.36,22.87-6.62Z" style="fill:#020101; stroke-width:0px;"/><path d="M389.22,77.23c-2.85-2.56-6.86-3.28-7.48-7.76-.2-1.47-1.56-1.83-4.4-2.2-1.31,1.23-.63,2.49.15,3.55,1.48,2.01,3.16,3.86,4.68,5.84,3.27,4.28,3.48,7.65.81,11.37-2.58,3.59-6.88,4.81-11.56,2.97-4.41-1.73-8.32-4.24-10.47-8.7-1.51-3.14-1.86-6.31.61-9.65,2,1.41,3.88,2.73,5.76,4.06.7.49,1.38,1.1,1.33,1.99-.16,3.49,2.37,4.35,4.84,5.41,2.14-1.25,1.89-2.7.76-4.21-1.9-2.52-3.91-4.96-5.78-7.5-2.26-3.07-1.93-6.27-.01-9.33,1.94-3.1,6.1-4.81,9.6-3.73,4.2,1.29,7.95,3.48,10.58,7.13,2.26,3.15,3.31,6.53.58,10.76Z" style="fill:#020101; stroke-width:0px;"/><path d="M394.02,99.74c-2.56,1.39-3.73,4.31-6.4,5.59-2.51-1.46-4.22-3.74-6.3-5.51.03-1.44,1.03-2.14,1.74-2.99,4.45-5.34,10.05-9.65,13.81-15.64.89-1.41,2.81-2.17,4.44-3.37,4.6,3.53,8.83,7.51,12.6,11.89,4.16,4.84,3.78,10.07-.6,14.22-4.3,4.08-8.96,4.11-13.84.13-1.77-1.45-3.17-3.39-5.45-4.31ZM399.24,93.9c1.24,1.59,2.75,2.85,4.42,3.85,1.24.74,2.54.46,3.56-.69,1.01-1.14,1.16-2.43.24-3.59-1.19-1.5-2.39-3.08-4.26-3.75-1.75,1.16-2.88,2.51-3.96,4.17Z" style="fill:#020101; stroke-width:0px;"/><path d="M49.28,195.95c2.25-4.56,2.54-9.31,4.73-13.42,2.47.27,4.58,1.06,7.03,2.08-2.49,8.14-4.94,16.16-7.46,24.37-4.05.12-7.13-.85-9.06-4.69-1.86-3.7-4.14-7.19-6.2-10.79-.51-.89-.95-1.78-2.54-1.47-1.89,2.89-1.76,6.77-3.56,9.84q-3.38-.04-7.24-1.88c2.37-7.66,4.75-15.36,7.16-23.14,4.46.15,7.38,1.69,9.3,5.64,2.22,4.57,5.09,8.82,7.83,13.46Z" style="fill:#020101; stroke-width:0px;"/><path d="M133.77,75.66c1.57-1.64,3.23-2.07,4.62-2.96,1.57-1,3.01-1.33,5.03-.86,3.45.8,4.92-.66,5.34-4.36-1.73-1.16-3.52-.46-5.27-.1-2.27.47-4.5,1.19-6.79,1.52-3.64.52-6.51-.92-8.46-4.04-1.97-3.16-1.87-6.52.23-9.4,3.39-4.65,8.09-7.35,13.98-7.51,2.97-.08,5.47,1,7.3,3.99-3.07,1.91-5.26,4.85-9.69,3.6-1.69-.48-4.31.67-4.11,3.8,1.89,1.44,3.83.59,5.71.21,2.11-.42,4.18-1.14,6.3-1.46,3.86-.58,6.87.9,8.8,4.3,1.9,3.33,1.91,6.71-.4,9.85-3.22,4.36-7.69,6.87-12.96,7.7-3.88.61-7.13-.86-9.63-4.29Z" style="fill:#020101; stroke-width:0px;"/><path d="M103.55,387.85c2.26,2.36,4.31,4.51,6.7,7.01-4.81,9.19-9.63,18.4-14.73,28.14-2.2-2.31-4.19-4.41-6.07-6.38-.31-1.71,1.33-2.43,1.49-4.29-1.8-1.9-3.83-4.04-5.63-5.93-1.91-1.08-2.99,1.1-4.96.37-1.61-1.74-3.51-3.79-5.76-6.21,9.79-4.3,19.16-8.41,28.97-12.71ZM90.87,402.6c.96,1.85,2.17,3.08,3.91,4.17,1.47-2.47,2.87-4.83,4.57-7.68-3.68.18-5.97,1.93-8.47,3.51Z" style="fill:#020101; stroke-width:0px;"/><path d="M33.6,171.21c1.7-3.78,2.99-6.63,4.3-9.54,3.5-1.03,7.05-.19,10.64-.88-1.11-3.67-4.61-5.64-6.18-9.2,1.21-2.69,2.48-5.52,3.89-8.67,3.49,3.39,5.96,7.14,8.34,10.83,2.83,4.38,6.22,7.66,11.21,9.27,1.08.35,2.06.97,3.25,1.54-.64,3.13-2.4,5.56-3.5,8.53-2.06-.82-4.02-1.31-5.67-2.31-3.38-2.06-6.9-1.98-10.6-1.46-4.9.69-9.83,1.2-15.67,1.89Z" style="fill:#020101; stroke-width:0px;"/><path d="M418.16,361.23c2.14,5.11,4.14,9.45,5.76,13.93,1.46,4.04,3.39,7.51,7.3,9.68,1.28.71,2.29,1.89,3.75,3.13-1.74,2.3-3.5,4.64-5.37,7.13-2.54-.96-4.32-2.69-6.2-4.22-1.85-1.5-3.86-2.5-6.27-2.79-5.77-.7-11.53-1.5-17.62-2.31,1.27-3.27,3.83-5.39,5.49-7.94,3.83-.51,7.22,1.8,11.27.93-1.48-3.22-2.86-6.2-4.34-9.41,1.51-2.66,3.58-4.99,6.25-8.13Z" style="fill:#020101; stroke-width:0px;"/><path d="M477.99,282.77c-.85,3.82-1.49,6.71-2.17,9.77-3.08,2.17-7.28,1.67-10.66,3.67,2.53,2.87,5.87,4.37,7.92,7.23.59,3.15-1.46,5.83-1.05,9.13-1.93-.11-2.9-1.21-3.94-2.15-3.11-2.77-6.31-5.44-9.27-8.36-2.48-2.44-5.2-3.99-8.73-4.23-1.61-.11-3.19-.75-4.94-1.2-.68-3.15.6-5.85,1.34-8.77.83,0,1.52-.15,2.11.02,7.21,2.14,13.96-.09,20.71-2.17,2.66-.82,5.28-1.79,8.68-2.96Z" style="fill:#020101; stroke-width:0px;"/><path d="M64.03,387.32c4.47-3.46,8.52-6.61,12.59-9.75,4.47-3.45,4.54-4.01,1.03-8.72-.38-.51-.65-1.09-1.08-1.82,1.73-1.95,3.5-3.57,5.96-4.63,5.33,6.8,10.62,13.56,16.01,20.44-1.95,2.12-3.77,3.68-6.01,4.81-1.71-2.02-3.3-3.9-5.09-6.01-6.23,3.67-11.16,8.91-17.3,12.74-2.67-1.76-3.92-4.57-6.13-7.07Z" style="fill:#020101; stroke-width:0px;"/><path d="M441.52,192.83c-1.07-3.03-2.14-5.59-2.63-8.61,6.51-3.09,13.56-4.35,20.05-7.19.43-2.92-1.72-5.11-1.6-8.01,1.99-1.3,4.39-1.64,7.02-2.45,2.78,8.53,5.42,16.64,8.09,24.83-.96.54-1.49.95-2.09,1.16-1.54.53-3.11.98-4.63,1.45-2.44-1.91-1.32-5.3-3.64-7.3-6.81,1.3-13.29,4.33-20.57,6.12Z" style="fill:#020101; stroke-width:0px;"/><path d="M268.09,42.72c4.13.71,8.31.36,12.6,1.55-.27,2.38-.52,4.62-.85,7.53-7.2-1.15-14.44-.47-21.94-1.98-.15-9.82,1.2-19.44,1.59-29.11,3.44-1.1,6.21.46,9.3.21.61,7.5-1.52,14.51-.7,21.81Z" style="fill:#020101; stroke-width:0px;"/><path d="M205.46,55.26c-3.39.77-6.09,1.38-8.49,1.92-1.15-.71-1.25-1.6-1.44-2.37-2.2-8.63-4.36-17.28-6.56-26.04,2.82-1.49,5.84-1.55,9.05-2.81,2.99,9.64,5.09,19.21,7.44,29.29Z" style="fill:#020101; stroke-width:0px;"/><path d="M283.67,448.21c3.4-.23,5.87-1.41,9.2-1.2,2.35,9.2,3.34,18.83,5.3,28.23-2.66,2.23-5.85,1.44-9.14,2.56-2.23-9.75-3.68-19.44-5.35-29.59Z" style="fill:#020101; stroke-width:0px;"/><path d="M362.98,404.76c1-1.41,1.98-2.47,3.95-2.8-.12,3.48,1.17,7.02-2.19,10.37-1.32-2.72-1.54-5.2-1.76-7.57Z" style="fill:#020101; stroke-width:0px;"/><path d="M199.92,459.12c.27,1.41-.12,2.53-1.73,3.54.03-3.69-.44-7.12.76-10.47.57,2.28-.95,4.85.97,6.94Z" style="fill:#fa7103; stroke-width:0px;"/><path d="M366.62,110.1c-14.47,14.59-26,30.74-35.3,48.45-9.2,17.52-15.81,36.05-20.72,55.88-19-1.9-37.81-4.72-56.68-4.58-1.21-4.47-1.7-124.31-.71-141.08,5.58-1.63,20.97-.37,37.22,3.49,28.01,6.66,53.29,18.92,76.19,37.84Z" style="fill:#fa7103; stroke-width:0px;"/><path d="M246.64,209.16c-19.44.11-38.65.91-58.34,3.11-10.09-38.4-26.88-73.11-55.3-101.81,33.01-27.26,70.68-41.31,113.64-42.6v141.31Z" style="fill:#fa7103; stroke-width:0px;"/><path d="M431.49,245.48c-37.32-13.25-75.28-23.46-114.91-29.83,9.65-38.7,26.36-73.04,54.52-101.32,39.82,33.23,61.91,89.63,60.39,131.15Z" style="fill:#fa7103; stroke-width:0px;"/><path d="M264.11,380.51c3.79,1.68,7.9,2.87,11.77,3.89,3.96,1.04,8.18,1.64,12.66,2.53-3.34,1.85-4.04,2.26-6.05,1.67-3.09-.91-6.61-.59-9.21-3.01-3.68.89-6.76-1.85-10.26-1.72-2.28.08-4.33-1.86-7.02-.42,9.48,7.46,20.67,10.72,31.82,13.94-2.35,7.61-4.97,9.5-12.15,9.83-4.88.23-9.58-1.02-14.36-1.49-2.91-.29-5.58-2.68-8.45-3.9-2.36-1.01-4.51-2.7-7.5-2.77,1.26,3.05,3.43,4.72,5.97,6.13,2.32,1.29,4.51,2.82,6.78,4.21,2.25,1.37,4.53,2.68,6.95,4.11-2,3.64-5.02,5.02-8.64,5.41-2.88.31-5.64-.39-8.32-1.28-4.26-1.42-8.34-3.31-12.24-5.5-5.11-2.88-10.4-5.12-16.24-6.06-4.21-.68-7.92-2.55-10.75-5.82-3.43-3.98-3.11-7.32.9-10.68.64-.53,1.31-1.05,2.04-1.43,4.47-2.33,6.75-6.12,7.8-10.96,1.69-7.78-.61-12.77-7.85-16.27-1.49-.72-3.08-1.25-4.56-1.98-6.51-3.25-8.88-9.36-5.68-15.77,3.42-6.86,5.04-13.94,4.83-21.61-.27-9.81.37-19.66-1.25-29.4-1.26-7.59-3.7-14.8-7.6-21.48-.48-.83-1.27-1.55-1.15-2.88,2.77-1.75,5.68-2.03,8.84-.74,4.16,1.68,7.31,4.52,9.86,8.14,5.48,7.78,8.34,16.54,9.82,25.84,1.2,7.56,2.15,15.15,2.12,22.83,0,.63.2,1.27.57,1.89,2.45-16.12,1.91-32.28.29-48.59,2.82.35,3.05,2.17,3.39,3.73,2.41,11.02,2.59,22.21.78,33.23-.65,3.96-.3,8.16-1.9,11.99-.07.16.33.52.51.79,1.44.3,1.56-.99,1.95-1.75,5.25-10.28,8.16-21.33,10.49-32.55,1.32-6.34,2.44-12.72,3.1-19.17.09-.84.27-1.63,1.03-2.22,4.92-.21,7.56,2.74,9.79,6.67,4.29,7.6,4.09,15.64,2.49,23.74-2.3,11.71-6.6,22.61-14.28,31.97-.15.18.02.61.06,1.3,2.76-1.14,5.16-2.44,7.26-4.52,8.8-8.71,16.28-18.41,22.43-29.15.24-.42.31-.93.83-1.09.46-.14.94-.2,1.73-.37-.61,2.73-1.47,5.3-2.97,7.61-7.21,11.05-14.98,21.59-26.12,29.14-1,.68-2.43,1.24-2.46,3.54,18.14-7.61,34.76-17.01,49.24-30.37,3.24,2.71,3.86,6.01,3.24,9.51-.82,4.71-3.41,8.58-6.42,12.22-7.3,8.85-16.57,14.78-27.31,18.54-2.47.87-4.95,1.74-7.33,3.16,5.74-.45,11.7-.07,17.15-1.57,5.36-1.47,10.83-2.3,16.87-4.57-1.67,3.65-4.14,4.4-6.65,5.09-7.39,2.04-15.05,2.54-22.57,3.82-2.94.5-5.9.84-9.19,1.29,5.37,2.42,15.28,4.14,25.28,4.27,8.44.11,16.89.02,25.33.03.35,7.11-2.73,11.78-9.51,14.52-6.76,2.73-13.88,3.23-21.04,3.49-2.94.1-5.89.02-8.84.02-.03.36-.07.71-.1,1.07Z" style="fill:#f5c70b; stroke-width:0px;"/><path d="M182.16,212.98c-39.59,5.32-77.41,15.93-114.36,32.34,2.33-52.2,22.41-95.27,60.36-130.89,27.8,27.54,43.99,60.94,53.99,98.54Z" style="fill:#fa7103; stroke-width:0px;"/><path d="M183.64,219.32c1.96,9.15,3.7,18.02,4.38,27.4h-106.07c8.86-7.71,83.19-27.89,101.7-27.4Z" style="fill:#fa7103; stroke-width:0px;"/><path d="M246.82,246.76h-52.42c-1.41-9.44-2.73-18.84-4.71-28.11,13.01-2.61,51.26-4.15,57.13-2.34v30.44Z" style="fill:#fa7103; stroke-width:0px;"/><path d="M253.2,246.69v-30.16c8.27-1.61,49.84,2.17,55.67,5.04-1.3,8.26-2.6,16.56-3.94,25.12h-51.73Z" style="fill:#fa7103; stroke-width:0px;"/><path d="M415.03,246.79h-103.81c.87-8.39,2-16.46,4.14-25.08,34.22,5.09,67.3,13.95,99.67,25.08Z" style="fill:#fa7103; stroke-width:0px;"/><path d="M89.43,104.68c2.1,1.11,4.17,1.41,6.61,1.76-.92,2.51-2.66,2.9-4.19,3.76-1.74-1.44-3.04-2.87-2.42-5.52Z" style="fill:#f5c70b; stroke-width:0px;"/><path d="M327.88,58.11c.76-2.09,1.12-3.7,2.52-4.78,1.87.25,3.39,1.25,4.95,2.08,1.46.77,2.15,2.12,1.37,3.73-.74,1.54-1.95,2.13-3.65,1.3-1.6-.78-3.24-1.46-5.19-2.33Z" style="fill:#f5c70b; stroke-width:0px;"/><path d="M340.84,46.76c-1.91,4.34-2.66,4.41-8.27,1.03.32-1.53.84-2.97,2.31-4.05,2.34.41,4.17,1.72,5.96,3.02Z" style="fill:#f5c70b; stroke-width:0px;"/><path d="M463.69,209.81c3.92.01,5.62,1.17,6.28,4.28.68,3.21-.78,5.6-4.26,6.85-2.21.79-4.5,1.21-6.85.97-2.95-.3-4.56-1.84-5.01-4.65-.47-2.94.44-4.8,3.05-6.17,2.13-1.12,4.46-1.23,6.8-1.28Z" style="fill:#f5c70b; stroke-width:0px;"/><path d="M116.78,417.15c1.06-1.65,1.89-3.03,3.4-4.06,2.12,1.35,3.87,3.01,5.38,4.83-2,4.55-3.39,4.43-8.79-.78Z" style="fill:#f5c70b; stroke-width:0px;"/><path d="M449.93,153.14c-.55,1.54-1.55,2.31-3.13,2.72-2.63-1.02-3.19-3.85-4.85-5.96,1.03-1.86,2.84-2.23,4.43-3.01,2.17,1.68,2.89,4.02,3.55,6.25Z" style="fill:#f5c70b; stroke-width:0px;"/><path d="M397.64,405.55c-2.27-1.37-3.37-2.57-4.31-3.95.88-1.68,2.39-2.72,3.75-3.89,1.29-1.11,2.71-1.19,4,.04,1.38,1.32,1.03,2.6-.15,3.89-1.11,1.22-2.13,2.52-3.3,3.91Z" style="fill:#f5c70b; stroke-width:0px;"/><path d="M35,264.21c-1.29-.11-2.47-.08-3.59-.33-2.84-.64-4.46-2.83-4.41-5.75.05-2.98,1.18-4.26,4.26-5.23,2.63-.83,5.2-.75,7.82,0,2.94.83,4.77,2.97,4.73,5.6-.04,2.55-2.09,4.88-4.96,5.43-1.29.25-2.64.21-3.84.29Z" style="fill:#f5c70b; stroke-width:0px;"/><path d="M421.6,131c-2.55.26-4.12-1.35-5.18-3.22-1-1.77-1-3.88.33-5.65,2.18-2.89,5.2-4.69,8.62-5.57,3.34-.86,7.28,3.78,6.17,6.99-1.05,3.05-6.75,7.33-9.94,7.45Z" style="fill:#f5c70b; stroke-width:0px;"/><path d="M375.99,417.84c3.74-.13,6.58,2.38,8.17,7.19.99,2.99.27,4.98-2.38,6.76-1.84,1.24-3.67,1.39-5.54.1-2.81-1.95-4.83-4.59-5.93-7.75-1.31-3.73,1-6.14,5.68-6.3Z" style="fill:#f5c70b; stroke-width:0px;"/><path d="M110.8,83.47c-1.77-1.24-2.62-2.6-3.44-4.07,1.61-1.95,3.76-3.11,5.66-4.41,3.76,2.22,4,3.28,1.45,5.82-.58.58-1.21,1.1-1.87,1.59-.51.38-1.09.66-1.8,1.08Z" style="fill:#f5c70b; stroke-width:0px;"/><path d="M165.8,453.64c.06-3.11,1.4-5.76,3.24-8.12,1.78-2.28,3.95-2.65,6.62-1.48,2.29,1,3.49,2.91,3.25,5.55-.26,2.85-1.45,5.44-3.01,7.77-1.62,2.4-4.19,3.1-6.51,2.14-2.52-1.04-3.69-2.96-3.59-5.86Z" style="fill:#f5c70b; stroke-width:0px;"/><path d="M399.24,93.9c1.07-1.67,2.21-3.01,3.96-4.17,1.88.66,3.07,2.25,4.26,3.75.92,1.16.77,2.45-.24,3.59-1.01,1.14-2.32,1.42-3.56.69-1.67-.99-3.18-2.25-4.42-3.85Z" style="fill:#f5c70b; stroke-width:0px;"/><path d="M90.87,402.6c2.51-1.58,4.79-3.33,8.47-3.51-1.7,2.85-3.1,5.21-4.57,7.68-1.73-1.09-2.95-2.32-3.91-4.17Z" style="fill:#f5c70b; stroke-width:0px;"/></svg>